<?xml version="1.0" encoding="UTF-8" standalone="no"?>
<!-- Created with Inkscape (http://www.inkscape.org/) -->

<svg
   xmlns:dc="http://purl.org/dc/elements/1.1/"
   xmlns:cc="http://creativecommons.org/ns#"
   xmlns:rdf="http://www.w3.org/1999/02/22-rdf-syntax-ns#"
   xmlns:svg="http://www.w3.org/2000/svg"
   xmlns="http://www.w3.org/2000/svg"
   xmlns:sodipodi="http://sodipodi.sourceforge.net/DTD/sodipodi-0.dtd"
   xmlns:inkscape="http://www.inkscape.org/namespaces/inkscape"
   id="svg2"
   version="1.1"
   inkscape:version="0.48.3.1 r9886"
   width="100"
   height="59"
   sodipodi:docname="Panneau_F1.jpg">
  <metadata
     id="metadata8">
    <rdf:RDF>
      <cc:Work
         rdf:about="">
        <dc:format>image/svg+xml</dc:format>
        <dc:type
           rdf:resource="http://purl.org/dc/dcmitype/StillImage" />
        <dc:title></dc:title>
      </cc:Work>
    </rdf:RDF>
  </metadata>
  <defs
     id="defs6" />
  <sodipodi:namedview
     pagecolor="#ffffff"
     bordercolor="#666666"
     borderopacity="1"
     objecttolerance="10"
     gridtolerance="10"
     guidetolerance="10"
     inkscape:pageopacity="0"
     inkscape:pageshadow="2"
     inkscape:window-width="1391"
     inkscape:window-height="876"
     id="namedview4"
     showgrid="false"
     inkscape:zoom="2.0731707"
     inkscape:cx="4.5823529"
     inkscape:cy="52.5"
     inkscape:window-x="49"
     inkscape:window-y="24"
     inkscape:window-maximized="1"
     inkscape:current-layer="svg2" />
  <path
     style="fill:#000000"
     d="m 0.77167964,58.487306 c -1.244881,-1.244874 -0.884429,-34.57962 0.37390196,-34.57962 0.616339,0 3.098645,0.617338 5.516233,1.371864 3.9843764,1.243518 4.3956114,1.719697 4.3956114,5.089828 0,4.133216 -0.382153,4.090913 11.30828,1.251783 l 5.240422,-1.272687 0,-9.309607 c 0,-9.056571 0.112443,-9.457248 4.137175,-14.7416557 2.275447,-2.987626 4.385406,-5.43204798 4.688799,-5.43204798 0.303393,0 2.413353,2.44442198 4.688799,5.43204798 l 4.137175,5.4320497 0,12.966118 0,12.966117 4.042528,-4.042527 4.042528,-4.042525 3.128576,3.936802 c 1.720712,2.165242 3.128574,4.295176 3.128574,4.733186 0,0.438009 2.570852,1.23855 5.712998,1.77898 l 5.713012,0.982599 0.079,4.944802 c 0.0597,3.732947 0.53821,5.03438 1.95259,5.310313 1.55494,0.303354 1.93016,-0.693376 2.2065,-5.861364 l 0.33299,-6.226874 11.472779,-5.942169 c 6.31005,-3.268193 11.82593,-5.723922 12.25753,-5.457177 0.4316,0.266745 0.729919,7.324862 0.66293,15.684704 l -0.12181,15.199713 -49.175194,0.287033 C 23.647247,59.10486 1.1823846,58.897992 0.77168964,58.487306 z"
     id="path2991"
     inkscape:connector-curvature="0"
     sodipodi:nodetypes="ssssscsssscccccsssccsscssscss" />
</svg>
