<?xml version="1.0" encoding="UTF-8" standalone="no"?>
<svg
   xmlns:dc="http://purl.org/dc/elements/1.1/"
   xmlns:cc="http://creativecommons.org/ns#"
   xmlns:rdf="http://www.w3.org/1999/02/22-rdf-syntax-ns#"
   xmlns:svg="http://www.w3.org/2000/svg"
   xmlns="http://www.w3.org/2000/svg"
   xmlns:sodipodi="http://sodipodi.sourceforge.net/DTD/sodipodi-0.dtd"
   xmlns:inkscape="http://www.inkscape.org/namespaces/inkscape"
   height="600"
   width="600"
   version="1.1"
   id="svg2"
   inkscape:version="0.48.3.1 r9886"
   sodipodi:docname="forms-verif.svg">
  <metadata
     id="metadata15">
    <rdf:RDF>
      <cc:Work
         rdf:about="">
        <dc:format>image/svg+xml</dc:format>
        <dc:type
           rdf:resource="http://purl.org/dc/dcmitype/StillImage" />
        <dc:title></dc:title>
      </cc:Work>
    </rdf:RDF>
  </metadata>
  <sodipodi:namedview
     pagecolor="#ffffff"
     bordercolor="#666666"
     borderopacity="1"
     objecttolerance="10"
     gridtolerance="10"
     guidetolerance="10"
     inkscape:pageopacity="0"
     inkscape:pageshadow="2"
     inkscape:window-width="1391"
     inkscape:window-height="876"
     id="namedview13"
     showgrid="false"
     inkscape:zoom="8"
     inkscape:cx="-281.78171"
     inkscape:cy="307.16867"
     inkscape:window-x="49"
     inkscape:window-y="24"
     inkscape:window-maximized="1"
     inkscape:current-layer="svg2" />
  <defs
     id="defs4">
    <radialGradient
       id="Gradient"
       gradientUnits="userSpaceOnUse"
       cx="300"
       cy="300"
       gradientTransform="matrix(0.02618453,0,0,0.02572248,-299.40869,299.32622)"
       r="292.31">
      <stop
         stop-color="#008700"
         offset="0"
         id="stop7" />
      <stop
         stop-color="#006f00"
         offset="1"
         id="stop9" />
    </radialGradient>
    <radialGradient
       id="Gradient-0"
       gradientUnits="userSpaceOnUse"
       cx="300"
       cy="300"
       gradientTransform="matrix(0.02618453,0,0,0.02572248,-299.40869,299.32622)"
       r="292.31">
      <stop
         stop-color="#008700"
         offset="0"
         id="stop7-4" />
      <stop
         stop-color="#006f00"
         offset="1"
         id="stop9-6" />
    </radialGradient>
  </defs>
  <rect
     style="fill:none;stroke:#000000;stroke-width:2;stroke-miterlimit:4;stroke-opacity:1;stroke-dasharray:none"
     id="rect2992"
     width="14.750926"
     height="14.444409"
     x="-299.6503"
     y="301.1019"
     inkscape:export-filename="/home/ben/public_html/wikipedale/web/img/verif_oui.png"
     inkscape:export-xdpi="90"
     inkscape:export-ydpi="90" />
  <path
     d="m -299.20737,309.78093 c 0,0 3.01534,3.39442 3.61866,4.78107 h 2.59328 c 1.08562,-3.31561 5.3074,-11.23142 8.92607,-14.00447 0.74968,-0.96361 -1.13375,-1.36133 -2.6538,-0.72346 -2.2906,0.96133 -6.6113,8.30135 -7.4181,10.0675 -1.14603,0.30154 -2.35209,-1.92921 -2.35209,-1.92921 l -2.71402,1.80855 z"
     id="path11"
     style="fill:url(#Gradient)"
     inkscape:connector-curvature="0"
     inkscape:export-filename="/home/ben/public_html/wikipedale/web/img/verif_oui.png"
     inkscape:export-xdpi="90"
     inkscape:export-ydpi="90" />
  <rect
     style="fill:none;stroke:#000000;stroke-width:2;stroke-miterlimit:4;stroke-opacity:1;stroke-dasharray:none"
     id="rect2992-6"
     width="14.750926"
     height="14.444409"
     x="-318.98099"
     y="301.1019"
     inkscape:export-filename="/home/ben/public_html/wikipedale/web/img/verif_rien.png"
     inkscape:export-xdpi="90"
     inkscape:export-ydpi="90" />
  <rect
     style="fill:none;stroke:#000000;stroke-width:2;stroke-miterlimit:4;stroke-opacity:1;stroke-dasharray:none"
     id="rect2992-6-1"
     width="14.750926"
     height="14.444409"
     x="-279.87546"
     y="301.1019"
     inkscape:export-filename="/home/ben/public_html/wikipedale/web/img/verif_non.png"
     inkscape:export-xdpi="90"
     inkscape:export-ydpi="90" />
  <g
     id="g3818"
     transform="matrix(0.98636452,0,0,0.98636452,-7.8567089,3.7128504)"
     inkscape:export-filename="/home/ben/public_html/wikipedale/web/img/verif_non.png"
     inkscape:export-xdpi="90"
     inkscape:export-ydpi="90">
    <path
       inkscape:connector-curvature="0"
       d="m -274.50691,313.82644 c 0.0797,-0.16817 0.25102,-0.53292 0.31555,-0.64733 0.54783,-0.97132 1.25127,-1.85237 1.93528,-2.72867 0.73104,-0.92594 1.54891,-1.77736 2.34066,-2.65035 0.35112,-0.38715 0.7821,-0.87203 1.13,-1.26212 0.98589,-1.06629 1.86679,-2.22116 2.79806,-3.33368 0.59885,-0.70415 1.25957,-1.39287 2.10618,-1.79641 0.0854,-0.0407 0.17653,-0.0681 0.2648,-0.10208 0.39028,-0.0774 0.58741,-0.16792 0.64398,0.37863 0.0113,0.10941 -0.19469,0.22478 -0.26979,0.26846 -0.0346,0.0245 -0.38149,-0.46518 -0.34686,-0.4897 l 0,0 c 0.0299,0.0405 -0.0607,-0.0762 0.0508,-0.0196 0.016,0.008 -0.003,0.0376 0.005,0.0536 0.0573,0.11192 0.0887,0.25084 0.18923,0.32638 0.0637,0.0479 0.16232,-0.026 0.2391,-0.005 0.0266,0.007 -0.0421,0.0358 -0.0632,0.0537 -0.4162,0.32885 -0.8328,0.65859 -1.22604,1.01506 -0.13967,0.1266 -0.28182,0.25128 -0.41009,0.38941 -0.13106,0.14113 -0.24429,0.29783 -0.36643,0.44674 -0.88575,1.16276 -1.73407,2.35627 -2.7037,3.45244 -1.14363,1.28751 -2.32527,2.54345 -3.39846,3.89149 -0.84896,1.06805 -1.71041,2.13373 -2.69253,3.08395 -0.023,0.0383 -0.56508,-0.287 -0.54208,-0.32533 z"
       id="path3808"
       style="fill:#800000;fill-opacity:1;fill-rule:nonzero;stroke:#800000;stroke-width:1;stroke-miterlimit:4;stroke-opacity:1;stroke-dasharray:none" />
    <path
       inkscape:connector-curvature="0"
       d="m -274.58529,303.08458 c 1.48532,0.65628 2.80792,1.62609 4.04025,2.67285 0.35216,0.29912 0.6888,0.61605 1.03319,0.92408 0.32504,0.31406 0.65506,0.62304 0.97511,0.94218 0.30695,0.30609 0.6023,0.62362 0.90567,0.93326 0.31744,0.32401 0.64001,0.64298 0.95674,0.96769 0.88539,0.90771 1.76202,1.82423 2.64577,2.73359 0.58859,0.61833 1.19626,1.21789 1.83072,1.78906 0.26955,0.24266 0.40631,0.33493 0.6296,0.59372 0.0541,0.0627 0.0983,0.13345 0.14745,0.20017 0.0247,0.0571 0.0579,0.11115 0.0742,0.17116 0.0394,0.1451 0.0472,0.22801 0.003,0.36247 -0.0132,0.0405 -0.0351,0.0777 -0.0549,0.11541 -0.006,0.0113 -0.0204,0.0441 -0.022,0.0314 -0.003,-0.0248 0.0112,-0.0488 0.0168,-0.0731 0.0265,-0.13158 -0.13599,-0.24022 -0.0288,-0.19858 0.0334,0.0251 -0.32235,0.49724 -0.35573,0.47209 l 0,0 c -0.12518,-0.0765 -0.18325,-0.17124 -0.1934,-0.31767 0.004,-0.0242 0.0124,-0.13572 0.0431,-0.17344 0.007,-0.008 0.002,0.021 0.006,0.0305 0.007,0.0166 0.0356,0.0361 0.023,0.049 -0.0127,0.0132 -0.0341,-0.0133 -0.0511,-0.02 -0.32808,-0.17703 -0.65918,-0.3387 -0.97534,-0.53879 -0.76647,-0.4851 -1.46815,-1.06095 -2.14395,-1.66417 -0.79151,-0.74003 -1.03374,-0.95315 -1.81047,-1.73584 -3.37696,-3.40286 1.49394,1.46724 -1.84551,-1.9389 -0.54518,-0.55607 -1.31385,-1.26199 -1.88016,-1.79095 -1.66318,-1.49434 -0.34413,-0.31265 -2.00352,-1.78988 -0.49852,-0.4438 -1.16867,-1.03437 -1.66093,-1.50568 -0.0785,-0.0752 -0.56486,-0.57009 -0.72735,-0.73523 -0.0358,-0.0298 0.38638,-0.5363 0.42219,-0.50645 z"
       id="path3816"
       style="fill:#800000;fill-opacity:1;fill-rule:nonzero;stroke:#800000;stroke-width:1;stroke-miterlimit:4;stroke-opacity:1;stroke-dasharray:none" />
  </g>
  <g
     id="g3914"
     transform="translate(-0.83236066,0)"
     inkscape:export-filename="/home/ben/public_html/wikipedale/web/img/verif_oui.png"
     inkscape:export-xdpi="90"
     inkscape:export-ydpi="90">
    <path
       transform="matrix(1.0648196,0,0,1.0648196,81.169287,-18.655889)"
       d="m -342.41646,280.29935 c 0,4.14932 -3.36369,7.51301 -7.51301,7.51301 -4.14932,0 -7.51301,-3.36369 -7.51301,-7.51301 0,-4.14932 3.36369,-7.51301 7.51301,-7.51301 4.14932,0 7.51301,3.36369 7.51301,7.51301 z"
       sodipodi:ry="7.5130095"
       sodipodi:rx="7.5130095"
       sodipodi:cy="280.29935"
       sodipodi:cx="-349.92947"
       id="path3759"
       style="fill:#2d2d2d;fill-opacity:1;fill-rule:nonzero;stroke:none"
       sodipodi:type="arc" />
    <path
       inkscape:export-ydpi="90"
       inkscape:export-xdpi="90"
       inkscape:export-filename="/home/ben/public_html/wikipedale/web/img/verif_oui.png"
       inkscape:connector-curvature="0"
       style="fill:#ffffff;fill-opacity:1"
       id="path11-4"
       d="m -297.14674,281.85284 c 0,0 2.24723,2.52974 2.69687,3.56316 h 1.93268 c 0.80907,-2.47101 3.95541,-8.37039 6.65229,-10.43705 0.55871,-0.71815 -0.84495,-1.01455 -1.97779,-0.53916 -1.7071,0.71645 -4.92718,6.1867 -5.52846,7.50295 -0.85409,0.22474 -1.75292,-1.43777 -1.75292,-1.43777 l -2.02267,1.34786 z" />
  </g>
  <g
     id="g3918"
     transform="translate(-3.7499943,0)"
     inkscape:export-filename="/home/ben/public_html/wikipedale/web/img/verif_non.png"
     inkscape:export-xdpi="90"
     inkscape:export-ydpi="90">
    <g
       transform="translate(60,-0.43765)"
       id="g3813">
      <path
         sodipodi:type="arc"
         style="fill:#2d2d2d;fill-opacity:1;fill-rule:nonzero;stroke:none"
         id="path3759-3"
         sodipodi:cx="-349.92947"
         sodipodi:cy="280.29935"
         sodipodi:rx="7.5130095"
         sodipodi:ry="7.5130095"
         d="m -342.41646,280.29935 c 0,4.14932 -3.36369,7.51301 -7.51301,7.51301 -4.14932,0 -7.51301,-3.36369 -7.51301,-7.51301 0,-4.14932 3.36369,-7.51301 7.51301,-7.51301 4.14932,0 7.51301,3.36369 7.51301,7.51301 z"
         transform="matrix(1.0648196,0,0,1.0648196,43.861762,-18.218239)" />
    </g>
    <g
       transform="translate(60.125,-1.0001505)"
       id="g3892">
      <path
         style="fill:none;stroke:#ffffff;stroke-width:2;stroke-linecap:round;stroke-linejoin:round;stroke-miterlimit:4;stroke-opacity:1;stroke-dasharray:none"
         d="m -333.25022,285.09933 8.75044,-8.57366"
         id="path3872"
         inkscape:connector-curvature="0" />
      <path
         style="fill:none;stroke:#ffffff;stroke-width:2;stroke-linecap:round;stroke-linejoin:round;stroke-miterlimit:4;stroke-opacity:1;stroke-dasharray:none"
         d="m -324.49978,285.09933 -8.75044,-8.57366"
         id="path3872-8"
         inkscape:connector-curvature="0" />
    </g>
  </g>
  <path
     sodipodi:type="arc"
     style="fill:#2d2d2d;fill-opacity:1;fill-rule:nonzero;stroke:none"
     id="path3759-1"
     sodipodi:cx="-349.92947"
     sodipodi:cy="280.29935"
     sodipodi:rx="7.5130095"
     sodipodi:ry="7.5130095"
     d="m -342.41646,280.29935 a 7.5130095,7.5130095 0 1 1 -15.02602,0 7.5130095,7.5130095 0 1 1 15.02602,0 z"
     transform="matrix(1.0648196,0,0,1.0648196,61.006238,-18.655889)"
     inkscape:export-filename="/home/ben/public_html/wikipedale/web/img/verif_rien.png"
     inkscape:export-xdpi="90"
     inkscape:export-ydpi="90" />
  <path
     style="fill:#ffffff;fill-opacity:1;fill-rule:nonzero;stroke:none"
     d="m -311.60552,273.81235 c -3.31371,0 -6,2.68629 -6,6 0,3.31371 2.68629,6 6,6 3.31371,0 6,-2.68629 6,-6 0,-3.31371 -2.68629,-6 -6,-6 z"
     id="path3759-1-0"
     inkscape:connector-curvature="0"
     inkscape:export-filename="/home/ben/public_html/wikipedale/web/img/verif_rien.png"
     inkscape:export-xdpi="90"
     inkscape:export-ydpi="90" />
</svg>
