<?xml version="1.0" encoding="UTF-8" standalone="no"?>
<!-- Generator: Adobe Illustrator 9.0, SVG Export Plug-In  -->

<svg
   xmlns:dc="http://purl.org/dc/elements/1.1/"
   xmlns:cc="http://creativecommons.org/ns#"
   xmlns:rdf="http://www.w3.org/1999/02/22-rdf-syntax-ns#"
   xmlns:svg="http://www.w3.org/2000/svg"
   xmlns="http://www.w3.org/2000/svg"
   xmlns:sodipodi="http://sodipodi.sourceforge.net/DTD/sodipodi-0.dtd"
   xmlns:inkscape="http://www.inkscape.org/namespaces/inkscape"
   width="16"
   height="16"
   viewBox="0 0 16 16"
   xml:space="preserve"
   id="svg2"
   sodipodi:version="0.32"
   inkscape:version="0.48.3.1 r9886"
   sodipodi:docname="save.svg"
   version="1.0"><metadata
   id="metadata25"><rdf:RDF><cc:Work
       rdf:about=""><dc:format>image/svg+xml</dc:format><dc:type
         rdf:resource="http://purl.org/dc/dcmitype/StillImage" /></cc:Work></rdf:RDF></metadata><defs
   id="defs23">
		
	
			
			
			
			
			
			
		</defs><sodipodi:namedview
   inkscape:window-height="847"
   inkscape:window-width="1280"
   inkscape:pageshadow="2"
   inkscape:pageopacity="0.0"
   borderopacity="1.0"
   bordercolor="#666666"
   pagecolor="#ffffff"
   id="base"
   showgrid="true"
   inkscape:grid-bbox="true"
   inkscape:grid-points="true"
   inkscape:zoom="16.416667"
   inkscape:cx="14.201419"
   inkscape:cy="14.411133"
   inkscape:window-x="56"
   inkscape:window-y="24"
   inkscape:current-layer="svg2"
   inkscape:window-maximized="0" />
	<path
   sodipodi:nodetypes="cccccc"
   id="path4837"
   d="M 40,7 12,7 8,3 l 0,-27 32,0 0,31 z"
   style="fill:none;stroke:#ffffff;stroke-width:14;stroke-linecap:round;stroke-linejoin:round;stroke-miterlimit:4;stroke-opacity:1;stroke-dasharray:none"
   inkscape:connector-curvature="0" /><g
   id="g2989"
   transform="matrix(0.42105263,0,0,0.43243243,-2.0883073,-2.144979)"><path
     sodipodi:nodetypes="cccccc"
     id="path9"
     d="M 40,39 12,39 8,35 8,8 40,8 40,39 z"
     style="fill:none;stroke:#000000;stroke-width:6;stroke-linecap:round;stroke-linejoin:round;stroke-miterlimit:4;stroke-dasharray:none"
     inkscape:connector-curvature="0" /><path
     id="path11"
     d="m 39.8,38.7 -27.8,0 -3.8,-3.8 0,-26.1 31.6,0 0,29.9 z"
     style="fill-rule:nonzero;stroke:none"
     inkscape:connector-curvature="0" /><path
     sodipodi:nodetypes="ccccccccc"
     id="path13"
     d="m 33,37 c 0,1.1 -0.9,2 -2,2 l -17,0 c -1.1,0 -2,-0.9 -2,-2 l 0,-9 c 0,-1.1 0.9,-2 2,-2 l 17,0 c 1.1,0 2,0.9 2,2 l 0,9 z"
     style="fill:#ffffff;fill-rule:nonzero;stroke:none"
     inkscape:connector-curvature="0" /><path
     sodipodi:nodetypes="ccccc"
     id="path15"
     d="m 21,37 -6,0 0,-9 6,0 0,9 z"
     style="fill-rule:nonzero;stroke:none"
     inkscape:connector-curvature="0" /><path
     sodipodi:nodetypes="ccccc"
     id="path17"
     d="M 38,22 10,22 10,9 38,9 38,22 z"
     style="fill:#ffffff;fill-rule:nonzero;stroke:none"
     inkscape:connector-curvature="0" /></g>
	<g
   id="crop_x0020_marks"
   style="fill-rule:nonzero;stroke:#000000;stroke-miterlimit:4"
   transform="translate(0,-32)">
		<path
   style="fill:none;stroke:none"
   d="M 48,48 0,48 0,0 48,0 48,48 z"
   id="path20"
   inkscape:connector-curvature="0" />
	</g>
</svg>