<?xml version="1.0" encoding="UTF-8" standalone="no"?>
<!-- Generator: Adobe Illustrator 15.1.0, SVG Export Plug-In . SVG Version: 6.00 Build 0)  -->

<svg
   xmlns:dc="http://purl.org/dc/elements/1.1/"
   xmlns:cc="http://creativecommons.org/ns#"
   xmlns:rdf="http://www.w3.org/1999/02/22-rdf-syntax-ns#"
   xmlns:svg="http://www.w3.org/2000/svg"
   xmlns="http://www.w3.org/2000/svg"
   xmlns:sodipodi="http://sodipodi.sourceforge.net/DTD/sodipodi-0.dtd"
   xmlns:inkscape="http://www.inkscape.org/namespaces/inkscape"
   version="1.1"
   id="Layer_1"
   x="0px"
   y="0px"
   width="16"
   height="16"
   viewBox="0 0 16 16"
   enable-background="new 0 0 32 32"
   xml:space="preserve"
   inkscape:version="0.48.3.1 r9886"
   sodipodi:docname="settings.svg"><metadata
   id="metadata7"><rdf:RDF><cc:Work
       rdf:about=""><dc:format>image/svg+xml</dc:format><dc:type
         rdf:resource="http://purl.org/dc/dcmitype/StillImage" /><dc:title></dc:title></cc:Work></rdf:RDF></metadata><defs
   id="defs5"><marker
     style="overflow:visible"
     id="Arrow2Mend-5"
     refX="0"
     refY="0"
     orient="auto"
     inkscape:stockid="Arrow2Mend"><path
       inkscape:connector-curvature="0"
       transform="scale(-0.6,-0.6)"
       d="M 8.7185878,4.0337352 -2.2072895,0.01601326 8.7185884,-4.0017078 c -1.7454984,2.3720609 -1.7354408,5.6174519 -6e-7,8.035443 z"
       style="font-size:12px;fill-rule:evenodd;stroke-width:0.625;stroke-linejoin:round"
       id="path45132-1" /></marker><marker
     style="overflow:visible"
     id="DotM-00"
     refX="0"
     refY="0"
     orient="auto"
     inkscape:stockid="DotM"><path
       inkscape:connector-curvature="0"
       transform="matrix(0.4,0,0,0.4,2.96,0.4)"
       style="fill-rule:evenodd;stroke:#000000;stroke-width:1pt;marker-start:none;marker-end:none"
       d="m -2.5,-1 c 0,2.76 -2.24,5 -5,5 -2.76,0 -5,-2.24 -5,-5 0,-2.76 2.24,-5 5,-5 2.76,0 5,2.24 5,5 z"
       id="path14329-2" /></marker><marker
     style="overflow:visible"
     id="Arrow2Mend-07"
     refX="0"
     refY="0"
     orient="auto"
     inkscape:stockid="Arrow2Mend"><path
       inkscape:connector-curvature="0"
       transform="scale(-0.6,-0.6)"
       d="M 8.7185878,4.0337352 -2.2072895,0.01601326 8.7185884,-4.0017078 c -1.7454984,2.3720609 -1.7354408,5.6174519 -6e-7,8.035443 z"
       style="font-size:12px;fill-rule:evenodd;stroke-width:0.625;stroke-linejoin:round"
       id="path45132-31" /></marker><marker
     style="overflow:visible"
     id="DotM-0"
     refX="0"
     refY="0"
     orient="auto"
     inkscape:stockid="DotM"><path
       inkscape:connector-curvature="0"
       transform="matrix(0.4,0,0,0.4,2.96,0.4)"
       style="fill-rule:evenodd;stroke:#000000;stroke-width:1pt;marker-start:none;marker-end:none"
       d="m -2.5,-1 c 0,2.76 -2.24,5 -5,5 -2.76,0 -5,-2.24 -5,-5 0,-2.76 2.24,-5 5,-5 2.76,0 5,2.24 5,5 z"
       id="path14329-94" /></marker><marker
     style="overflow:visible"
     id="Arrow2Mend-6"
     refX="0"
     refY="0"
     orient="auto"
     inkscape:stockid="Arrow2Mend"><path
       inkscape:connector-curvature="0"
       transform="scale(-0.6,-0.6)"
       d="M 8.7185878,4.0337352 -2.2072895,0.01601326 8.7185884,-4.0017078 c -1.7454984,2.3720609 -1.7354408,5.6174519 -6e-7,8.035443 z"
       style="font-size:12px;fill-rule:evenodd;stroke-width:0.625;stroke-linejoin:round"
       id="path45132-8" /></marker><marker
     style="overflow:visible"
     id="DotM-8"
     refX="0"
     refY="0"
     orient="auto"
     inkscape:stockid="DotM"><path
       inkscape:connector-curvature="0"
       transform="matrix(0.4,0,0,0.4,2.96,0.4)"
       style="fill-rule:evenodd;stroke:#000000;stroke-width:1pt;marker-start:none;marker-end:none"
       d="m -2.5,-1 c 0,2.76 -2.24,5 -5,5 -2.76,0 -5,-2.24 -5,-5 0,-2.76 2.24,-5 5,-5 2.76,0 5,2.24 5,5 z"
       id="path14329-91" /></marker><clipPath
     clipPathUnits="userSpaceOnUse"
     id="clipPath3169-2"><rect
       style="fill:#f5f5f4;fill-opacity:1;stroke:#888a85;stroke-width:2;stroke-miterlimit:4;stroke-opacity:1;stroke-dasharray:none;stroke-dashoffset:0"
       id="rect3171-7"
       width="748.77557"
       height="428.80975"
       x="48.992397"
       y="105.34417" /></clipPath><clipPath
     id="clipPath22-7"
     clipPathUnits="userSpaceOnUse"><path
       id="path24-2"
       d="M 0,792 1224,792 1224,0 0,0 0,792 z"
       inkscape:connector-curvature="0" /></clipPath><clipPath
     clipPathUnits="userSpaceOnUse"
     id="clipPath6483-7"><rect
       style="fill:#ffffff;fill-opacity:1;stroke:none"
       id="rect6485-5"
       width="548"
       height="280"
       x="67.578148"
       y="187.65627" /></clipPath><clipPath
     id="clipPath10152"
     clipPathUnits="userSpaceOnUse"><rect
       y="754.14667"
       x="-37.134048"
       height="140.17392"
       width="718.58722"
       id="rect10154"
       style="fill:#555753;fill-opacity:1;stroke:#555753;stroke-width:1.83322382;stroke-miterlimit:4;stroke-opacity:1;stroke-dasharray:none;stroke-dashoffset:0" /></clipPath><marker
     style="overflow:visible"
     id="Arrow2Mend-0"
     refX="0"
     refY="0"
     orient="auto"
     inkscape:stockid="Arrow2Mend"><path
       inkscape:connector-curvature="0"
       transform="scale(-0.6,-0.6)"
       d="M 8.7185878,4.0337352 -2.2072895,0.01601326 8.7185884,-4.0017078 c -1.7454984,2.3720609 -1.7354408,5.6174519 -6e-7,8.035443 z"
       style="font-size:12px;fill-rule:evenodd;stroke-width:0.625;stroke-linejoin:round"
       id="path45132-982" /></marker><marker
     style="overflow:visible"
     id="DotM-2"
     refX="0"
     refY="0"
     orient="auto"
     inkscape:stockid="DotM"><path
       inkscape:connector-curvature="0"
       transform="matrix(0.4,0,0,0.4,2.96,0.4)"
       style="fill-rule:evenodd;stroke:#000000;stroke-width:1pt;marker-start:none;marker-end:none"
       d="m -2.5,-1 c 0,2.76 -2.24,5 -5,5 -2.76,0 -5,-2.24 -5,-5 0,-2.76 2.24,-5 5,-5 2.76,0 5,2.24 5,5 z"
       id="path14329-95" /></marker><marker
     style="overflow:visible"
     id="Arrow2Mend-2"
     refX="0"
     refY="0"
     orient="auto"
     inkscape:stockid="Arrow2Mend"><path
       inkscape:connector-curvature="0"
       transform="scale(-0.6,-0.6)"
       d="M 8.7185878,4.0337352 -2.2072895,0.01601326 8.7185884,-4.0017078 c -1.7454984,2.3720609 -1.7354408,5.6174519 -6e-7,8.035443 z"
       style="font-size:12px;fill-rule:evenodd;stroke-width:0.625;stroke-linejoin:round"
       id="path45132-98" /></marker><marker
     style="overflow:visible"
     id="DotM-5"
     refX="0"
     refY="0"
     orient="auto"
     inkscape:stockid="DotM"><path
       inkscape:connector-curvature="0"
       transform="matrix(0.4,0,0,0.4,2.96,0.4)"
       style="fill-rule:evenodd;stroke:#000000;stroke-width:1pt;marker-start:none;marker-end:none"
       d="m -2.5,-1 c 0,2.76 -2.24,5 -5,5 -2.76,0 -5,-2.24 -5,-5 0,-2.76 2.24,-5 5,-5 2.76,0 5,2.24 5,5 z"
       id="path14329-1" /></marker><marker
     style="overflow:visible"
     id="Arrow2Mend-75"
     refX="0"
     refY="0"
     orient="auto"
     inkscape:stockid="Arrow2Mend"><path
       inkscape:connector-curvature="0"
       transform="scale(-0.6,-0.6)"
       d="M 8.7185878,4.0337352 -2.2072895,0.01601326 8.7185884,-4.0017078 c -1.7454984,2.3720609 -1.7354408,5.6174519 -6e-7,8.035443 z"
       style="font-size:12px;fill-rule:evenodd;stroke-width:0.625;stroke-linejoin:round"
       id="path45132-9" /></marker><marker
     style="overflow:visible"
     id="DotM-466"
     refX="0"
     refY="0"
     orient="auto"
     inkscape:stockid="DotM"><path
       inkscape:connector-curvature="0"
       transform="matrix(0.4,0,0,0.4,2.96,0.4)"
       style="fill-rule:evenodd;stroke:#000000;stroke-width:1pt;marker-start:none;marker-end:none"
       d="m -2.5,-1 c 0,2.76 -2.24,5 -5,5 -2.76,0 -5,-2.24 -5,-5 0,-2.76 2.24,-5 5,-5 2.76,0 5,2.24 5,5 z"
       id="path14329-32" /></marker><marker
     style="overflow:visible"
     id="marker32938"
     refX="0"
     refY="0"
     orient="auto"
     inkscape:stockid="Arrow2Mend"><path
       inkscape:connector-curvature="0"
       transform="scale(-0.6,-0.6)"
       d="M 8.7185878,4.0337352 -2.2072895,0.01601326 8.7185884,-4.0017078 c -1.7454984,2.3720609 -1.7354408,5.6174519 -6e-7,8.035443 z"
       style="font-size:12px;fill-rule:evenodd;stroke-width:0.625;stroke-linejoin:round"
       id="path32940" /></marker><marker
     style="overflow:visible"
     id="marker32934"
     refX="0"
     refY="0"
     orient="auto"
     inkscape:stockid="DotM"><path
       inkscape:connector-curvature="0"
       transform="matrix(0.4,0,0,0.4,2.96,0.4)"
       style="fill-rule:evenodd;stroke:#000000;stroke-width:1pt;marker-start:none;marker-end:none"
       d="m -2.5,-1 c 0,2.76 -2.24,5 -5,5 -2.76,0 -5,-2.24 -5,-5 0,-2.76 2.24,-5 5,-5 2.76,0 5,2.24 5,5 z"
       id="path32936" /></marker><marker
     style="overflow:visible"
     id="Arrow2Mend-7"
     refX="0"
     refY="0"
     orient="auto"
     inkscape:stockid="Arrow2Mend"><path
       inkscape:connector-curvature="0"
       transform="scale(-0.6,-0.6)"
       d="M 8.7185878,4.0337352 -2.2072895,0.01601326 8.7185884,-4.0017078 c -1.7454984,2.3720609 -1.7354408,5.6174519 -6e-7,8.035443 z"
       style="font-size:12px;fill-rule:evenodd;stroke-width:0.625;stroke-linejoin:round"
       id="path45132-2" /></marker><marker
     style="overflow:visible"
     id="DotM-46"
     refX="0"
     refY="0"
     orient="auto"
     inkscape:stockid="DotM"><path
       inkscape:connector-curvature="0"
       transform="matrix(0.4,0,0,0.4,2.96,0.4)"
       style="fill-rule:evenodd;stroke:#000000;stroke-width:1pt;marker-start:none;marker-end:none"
       d="m -2.5,-1 c 0,2.76 -2.24,5 -5,5 -2.76,0 -5,-2.24 -5,-5 0,-2.76 2.24,-5 5,-5 2.76,0 5,2.24 5,5 z"
       id="path14329-9" /></marker><marker
     style="overflow:visible"
     id="Arrow2Mend-3"
     refX="0"
     refY="0"
     orient="auto"
     inkscape:stockid="Arrow2Mend"><path
       inkscape:connector-curvature="0"
       transform="scale(-0.6,-0.6)"
       d="M 8.7185878,4.0337352 -2.2072895,0.01601326 8.7185884,-4.0017078 c -1.7454984,2.3720609 -1.7354408,5.6174519 -6e-7,8.035443 z"
       style="font-size:12px;fill-rule:evenodd;stroke-width:0.625;stroke-linejoin:round"
       id="path45132-3" /></marker><marker
     style="overflow:visible"
     id="DotM-42"
     refX="0"
     refY="0"
     orient="auto"
     inkscape:stockid="DotM"><path
       inkscape:connector-curvature="0"
       transform="matrix(0.4,0,0,0.4,2.96,0.4)"
       style="fill-rule:evenodd;stroke:#000000;stroke-width:1pt;marker-start:none;marker-end:none"
       d="m -2.5,-1 c 0,2.76 -2.24,5 -5,5 -2.76,0 -5,-2.24 -5,-5 0,-2.76 2.24,-5 5,-5 2.76,0 5,2.24 5,5 z"
       id="path14329-3" /></marker><marker
     style="overflow:visible"
     id="Arrow2Mend-9"
     refX="0"
     refY="0"
     orient="auto"
     inkscape:stockid="Arrow2Mend"><path
       inkscape:connector-curvature="0"
       transform="scale(-0.6,-0.6)"
       d="M 8.7185878,4.0337352 -2.2072895,0.01601326 8.7185884,-4.0017078 c -1.7454984,2.3720609 -1.7354408,5.6174519 -6e-7,8.035443 z"
       style="font-size:12px;fill-rule:evenodd;stroke-width:0.625;stroke-linejoin:round"
       id="path45132-4" /></marker><marker
     style="overflow:visible"
     id="DotM-4"
     refX="0"
     refY="0"
     orient="auto"
     inkscape:stockid="DotM"><path
       inkscape:connector-curvature="0"
       transform="matrix(0.4,0,0,0.4,2.96,0.4)"
       style="fill-rule:evenodd;stroke:#000000;stroke-width:1pt;marker-start:none;marker-end:none"
       d="m -2.5,-1 c 0,2.76 -2.24,5 -5,5 -2.76,0 -5,-2.24 -5,-5 0,-2.76 2.24,-5 5,-5 2.76,0 5,2.24 5,5 z"
       id="path14329-8" /></marker><clipPath
     id="clipPath6483-5"
     clipPathUnits="userSpaceOnUse"><rect
       y="187.65627"
       x="67.578148"
       height="280"
       width="548"
       id="rect6485-2"
       style="fill:#ffffff;fill-opacity:1;stroke:none" /></clipPath><clipPath
     id="clipPath6483-1-7-3-0"
     clipPathUnits="userSpaceOnUse"><rect
       y="187.65627"
       x="67.578148"
       height="280"
       width="548"
       id="rect6485-6-4-5-6"
       style="fill:#ffffff;fill-opacity:1;stroke:none" /></clipPath><marker
     style="overflow:visible"
     id="Arrow2Lend-0"
     refX="0"
     refY="0"
     orient="auto"
     inkscape:stockid="Arrow2Lend"><path
       transform="matrix(-1.1,0,0,-1.1,-1.1,0)"
       d="M 8.7185878,4.0337352 -2.2072895,0.01601326 8.7185884,-4.0017078 c -1.7454984,2.3720609 -1.7354408,5.6174519 -6e-7,8.035443 z"
       style="font-size:12px;fill-rule:evenodd;stroke-width:0.625;stroke-linejoin:round"
       id="path45126-6"
       inkscape:connector-curvature="0" /></marker><clipPath
     id="clipPath6483-1-7-3-9"
     clipPathUnits="userSpaceOnUse"><rect
       y="187.65627"
       x="67.578148"
       height="280"
       width="548"
       id="rect6485-6-4-5-8"
       style="fill:#ffffff;fill-opacity:1;stroke:none" /></clipPath><clipPath
     id="clipPath6483-1-7-3"
     clipPathUnits="userSpaceOnUse"><rect
       y="187.65627"
       x="67.578148"
       height="280"
       width="548"
       id="rect6485-6-4-5"
       style="fill:#ffffff;fill-opacity:1;stroke:none" /></clipPath><clipPath
     id="clipPath6483-1-7"
     clipPathUnits="userSpaceOnUse"><rect
       y="187.65627"
       x="67.578148"
       height="280"
       width="548"
       id="rect6485-6-4"
       style="fill:#ffffff;fill-opacity:1;stroke:none" /></clipPath><clipPath
     id="clipPath6483-1"
     clipPathUnits="userSpaceOnUse"><rect
       y="187.65627"
       x="67.578148"
       height="280"
       width="548"
       id="rect6485-6"
       style="fill:#ffffff;fill-opacity:1;stroke:none" /></clipPath><clipPath
     id="clipPath6483"
     clipPathUnits="userSpaceOnUse"><rect
       y="187.65627"
       x="67.578148"
       height="280"
       width="548"
       id="rect6485"
       style="fill:#ffffff;fill-opacity:1;stroke:none" /></clipPath><clipPath
     clipPathUnits="userSpaceOnUse"
     id="clipPath22"><path
       inkscape:connector-curvature="0"
       d="M 0,792 1224,792 1224,0 0,0 0,792 z"
       id="path24" /></clipPath><clipPath
     id="clipPath3169"
     clipPathUnits="userSpaceOnUse"><rect
       y="105.34417"
       x="48.992397"
       height="428.80975"
       width="748.77557"
       id="rect3171"
       style="fill:#f5f5f4;fill-opacity:1;stroke:#888a85;stroke-width:2;stroke-miterlimit:4;stroke-opacity:1;stroke-dasharray:none;stroke-dashoffset:0" /></clipPath><marker
     style="overflow:visible"
     id="Arrow2Lend"
     refX="0"
     refY="0"
     orient="auto"
     inkscape:stockid="Arrow2Lend"><path
       inkscape:connector-curvature="0"
       transform="matrix(-1.1,0,0,-1.1,-1.1,0)"
       d="M 8.7185878,4.0337352 -2.2072895,0.01601326 8.7185884,-4.0017078 c -1.7454984,2.3720609 -1.7354408,5.6174519 -6e-7,8.035443 z"
       style="font-size:12px;fill-rule:evenodd;stroke-width:0.625;stroke-linejoin:round"
       id="path45126" /></marker><marker
     style="overflow:visible"
     id="Arrow2Mend"
     refX="0"
     refY="0"
     orient="auto"
     inkscape:stockid="Arrow2Mend"><path
       inkscape:connector-curvature="0"
       transform="scale(-0.6,-0.6)"
       d="M 8.7185878,4.0337352 -2.2072895,0.01601326 8.7185884,-4.0017078 c -1.7454984,2.3720609 -1.7354408,5.6174519 -6e-7,8.035443 z"
       style="font-size:12px;fill-rule:evenodd;stroke-width:0.625;stroke-linejoin:round"
       id="path45132" /></marker><marker
     style="overflow:visible"
     id="DotL"
     refX="0"
     refY="0"
     orient="auto"
     inkscape:stockid="DotL"><path
       inkscape:connector-curvature="0"
       transform="matrix(0.8,0,0,0.8,5.92,0.8)"
       style="fill-rule:evenodd;stroke:#000000;stroke-width:1pt;marker-start:none;marker-end:none"
       d="m -2.5,-1 c 0,2.76 -2.24,5 -5,5 -2.76,0 -5,-2.24 -5,-5 0,-2.76 2.24,-5 5,-5 2.76,0 5,2.24 5,5 z"
       id="path14326" /></marker><marker
     style="overflow:visible"
     id="DotM"
     refX="0"
     refY="0"
     orient="auto"
     inkscape:stockid="DotM"><path
       inkscape:connector-curvature="0"
       transform="matrix(0.4,0,0,0.4,2.96,0.4)"
       style="fill-rule:evenodd;stroke:#000000;stroke-width:1pt;marker-start:none;marker-end:none"
       d="m -2.5,-1 c 0,2.76 -2.24,5 -5,5 -2.76,0 -5,-2.24 -5,-5 0,-2.76 2.24,-5 5,-5 2.76,0 5,2.24 5,5 z"
       id="path14329" /></marker></defs><sodipodi:namedview
   pagecolor="#ffffff"
   bordercolor="#666666"
   borderopacity="1"
   objecttolerance="10"
   gridtolerance="10"
   guidetolerance="10"
   inkscape:pageopacity="0"
   inkscape:pageshadow="2"
   inkscape:window-width="1391"
   inkscape:window-height="876"
   id="namedview3"
   showgrid="false"
   showguides="true"
   inkscape:guide-bbox="true"
   inkscape:zoom="11.313708"
   inkscape:cx="-8.8826272"
   inkscape:cy="6.2497932"
   inkscape:window-x="49"
   inkscape:window-y="24"
   inkscape:window-maximized="1"
   inkscape:current-layer="Layer_1" />
<path
   style="fill:#2d2d2d;fill-opacity:1;stroke:none"
   d="m 6.8941475,5e-7 c -0.264927,0 -0.4782075,0.21328 -0.4782075,0.478207 l 0,1.215442 C 5.797366,1.847208 5.201992,2.094358 4.6425903,2.4308855 L 3.7858033,1.574098 c -0.1873314,-0.1873315 -0.4901282,-0.1873315 -0.6774596,0 L 1.5541718,3.1282693 c -0.1873313,0.187332 -0.1873313,0.490128 0,0.67746 L 2.4109589,4.6625169 C 2.0770656,5.2202845 1.8455425,5.8224095 1.6936489,6.435866 l -1.21544218,0 C 0.21328021,6.435866 0,6.649146 0,6.914071 l 0,2.1917815 c 0,0.264927 0.21328021,0.478207 0.47820673,0.478207 l 1.19551687,0 c 0.1535335,0.6191255 0.4004256,1.2134775 0.7372353,1.7733495 l -0.8567871,0.856788 c -0.1873313,0.18733 -0.1873313,0.490128 0,0.67746 l 1.5541719,1.554171 c 0.1873314,0.187331 0.4901282,0.187331 0.6774596,0 l 0.856787,-0.856787 c 0.5618462,0.33886 1.1546672,0.563695 1.7733497,0.71731 l 0,1.215442 C 6.41594,15.78672 6.6292205,16 6.8941475,16 l 2.1917815,0 c 0.264925,0 0.478205,-0.21328 0.478205,-0.478206 l 0,-1.215443 c 0.620005,-0.152795 1.212592,-0.380883 1.77335,-0.71731 l 0.856787,0.856787 c 0.187332,0.187331 0.490129,0.187331 0.67746,0 l 1.554172,-1.554171 c 0.187331,-0.187333 0.187331,-0.49013 0,-0.67746 l -0.856787,-0.856788 c 0.337226,-0.558859 0.583323,-1.157981 0.737235,-1.773349 l 1.215442,0 C 15.78672,9.5840595 16,9.3707795 16,9.1058525 L 16,6.914073 C 16,6.649146 15.78672,6.435866 15.521793,6.435866 l -1.215442,0 C 14.153719,5.8210245 13.902517,5.219028 13.569115,4.6625169 l 0.856788,-0.8567876 c 0.187331,-0.187332 0.187331,-0.490128 0,-0.67746 L 12.871731,1.574098 c -0.187332,-0.1873315 -0.490128,-0.1873315 -0.67746,0 l -0.856787,0.8567875 c -0.55992,-0.336078 -1.157179,-0.584764 -1.77335,-0.737236 l 0,-1.215442 C 9.564134,0.2132805 9.350854,5e-7 9.085929,5e-7 l -2.1917815,0 z M 7.910336,4.9813203 c 0.774822,-0.020569 1.564997,0.2414547 2.171856,0.8169362 1.213716,1.150963 1.270513,3.0702185 0.119551,4.2839355 C 9.0536215,11.292913 7.1325315,11.345631 5.917808,10.201743 4.7040916,9.0507805 4.6472939,7.131525 5.7982565,5.917808 6.3737385,5.31095 7.1355145,5.0018835 7.910336,4.9813208 z"
   id="rect3381-0"
   inkscape:connector-curvature="0"
   inkscape:export-filename="/home/ben/public_html/wikipedale/web/img/settings.png"
   inkscape:export-xdpi="90"
   inkscape:export-ydpi="90" /></svg>