<?xml version="1.0" encoding="UTF-8" standalone="no"?>
<!-- Created with Inkscape (http://www.inkscape.org/) -->

<svg
   xmlns:dc="http://purl.org/dc/elements/1.1/"
   xmlns:cc="http://creativecommons.org/ns#"
   xmlns:rdf="http://www.w3.org/1999/02/22-rdf-syntax-ns#"
   xmlns:svg="http://www.w3.org/2000/svg"
   xmlns="http://www.w3.org/2000/svg"
   xmlns:sodipodi="http://sodipodi.sourceforge.net/DTD/sodipodi-0.dtd"
   xmlns:inkscape="http://www.inkscape.org/namespaces/inkscape"
   version="1.1"
   width="42"
   height="68"
   id="svg3173"
   inkscape:version="0.48.2 r9819"
   sodipodi:docname="pointer_u2699-3.svg">
  <sodipodi:namedview
     pagecolor="#ffffff"
     bordercolor="#666666"
     borderopacity="1"
     objecttolerance="10"
     gridtolerance="10"
     guidetolerance="10"
     inkscape:pageopacity="0"
     inkscape:pageshadow="2"
     inkscape:window-width="744"
     inkscape:window-height="672"
     id="namedview14"
     showgrid="false"
     showguides="true"
     inkscape:guide-bbox="true"
     inkscape:zoom="10"
     inkscape:cx="25.5"
     inkscape:cy="45.368667"
     inkscape:window-x="473"
     inkscape:window-y="3"
     inkscape:window-maximized="0"
     inkscape:current-layer="svg3173" />
  <defs
     id="defs3175" />
  <metadata
     id="metadata3178">
    <rdf:RDF>
      <cc:Work
         rdf:about="">
        <dc:format>image/svg+xml</dc:format>
        <dc:type
           rdf:resource="http://purl.org/dc/dcmitype/StillImage" />
        <dc:title></dc:title>
      </cc:Work>
    </rdf:RDF>
  </metadata>
  <path
     inkscape:connector-curvature="0"
     style="fill:#838383"
     id="path145"
     d="M 5.5285752,34.508547 C 13.778923,45.848174 16.286296,59.29243 20.143266,66.74707 c 0.896045,1.120357 1.492123,1.19176 2.127964,0.09172 C 25.75681,59.076414 27.337526,43.890084 35.608501,34.392033 26.483169,39.382547 3.4894727,24.309577 5.5285752,34.508547 z" />
  <text
     xml:space="preserve"
     style="font-size:22px;font-style:normal;font-variant:normal;font-weight:bold;font-stretch:normal;text-align:center;line-height:125%;letter-spacing:0px;word-spacing:0px;text-anchor:middle;fill:#838383;fill-opacity:1;stroke:none;font-family:Pecita;-inkscape-font-specification:Pecita Bold"
     x="-72.610168"
     y="-16.360067"
     id="text2991"
     sodipodi:linespacing="125%"
     transform="scale(1,-1)"><tspan
       sodipodi:role="line"
       id="tspan2993"
       x="-72.610168"
       y="-16.360067" /></text>
  <path
     sodipodi:nodetypes="cssscsscccssscccscsscccssssscccccssccccsssssc"
     inkscape:connector-curvature="0"
     id="path3025"
     style="font-size:37.66820145px;font-style:normal;font-variant:normal;font-weight:bold;font-stretch:normal;text-align:center;line-height:125%;letter-spacing:0px;word-spacing:0px;text-anchor:middle;fill:#838383;fill-opacity:1;stroke:none;font-family:Pecita;-inkscape-font-specification:Pecita"
     d="m 30.692147,36.189018 c 0,0.866196 0.701533,-0.1244 1.796211,0.416972 0.985208,0.487235 2.736697,0.97447 4.378713,0.97447 1.094677,0 2.132701,-0.994484 2.364245,-2.05273 0.505558,-2.310603 2.077621,-5.964072 2.515491,-6.830266 0.218936,-0.487235 0.221203,-1.621878 0.221203,-2.217386 0,-0.757921 -0.54734,-1.461706 -1.642017,-1.678256 -1.094677,-0.216549 -3.021053,-0.863953 -4.663069,-1.188778 0.383136,-1.732388 0.287653,-0.100781 0.342388,-2.049724 0.821006,-0.162411 2.244091,-0.541371 3.284035,-0.866196 1.149409,-0.37896 1.999501,-1.374946 1.999501,-2.241141 0,-2.16549 -0.861322,-6.27304 -1.408661,-7.355784 -0.821008,-1.6241167 -3.327539,-1.9201783 -4.969554,-1.9201783 -0.985208,0 -3.972494,1.2330983 -4.902969,1.7744713 -0.713613,-0.128607 -0.08107,-0.134173 -1.449421,-0.513134 0,-1.2451547 0.1506,-3.5289032 -0.342003,-4.7199225 C 27.340499,3.5559478 26.129021,2.27115 23.939666,2.27115 c -0.985208,0 -2.851146,0.5355362 -4.164759,0.9144962 -0.273669,-0.2706845 -1.282979,-0.3731239 -1.666114,-0.3731239 -1.094678,0 -2.934758,2.0682219 -2.934758,3.0968289 0,0.2706861 0.0036,0.3680862 0.0584,0.6929101 0.169189,1.3907799 0.915817,3.7391647 0.962226,3.9077787 -1.134299,0.165237 -0.918462,0.28845 -1.722025,0.57468 C 13.925297,10.489209 13.159023,9.6230148 12.940086,9.2981909 12.28328,8.3237207 11.212893,7.1762663 10.61082,7.1762663 c -0.8757422,0 -3.6240194,1.2851598 -4.2808258,1.718258 C 5.344787,9.544171 3.0087146,11.235242 1.2572319,13.833829 c -0.32840345,0.487235 -0.30218882,0.464339 -0.30218882,1.330534 0,0.324825 -0.1881485,1.339492 1.28966622,3.396708 1.0946766,1.569978 4.1675472,2.643755 4.9338206,2.643755 0.7370584,-3.832296 -1.5779882,-1.103405 -1.1211629,1.234707 0,0.59551 0.088797,1.439958 0.1435305,1.98133 -1.1494101,0.59551 -2.5724942,1.353433 -3.2840341,1.569981 l -0.4926097,0.162421 c -0.8210057,0.270695 -2.2945426,2.343881 -2.2945426,3.643173 0,2.92341 2.4235141,6.427282 2.8613844,7.293476 3.4304802,3.413822 3.4370886,1.599664 5.2392321,0.822629 1.0528988,-0.928661 2.4494234,-1.595608 3.2704314,-2.407665 1.477813,1.136882 2.700608,2.80383 4.561559,3.291064 0,1.136884 0.27367,3.789611 0.27367,4.818219 0,1.082745 0.691785,2.267036 1.786462,2.267036 0.328403,0 1.90435,-0.125569 2.178019,-0.179716 1.642015,-0.324822 5.830621,-0.218789 7.198966,-0.218789 1.094679,0 1.425351,-1.327165 1.425351,-2.409911 0,-0.595509 -0.54734,-4.76408 -0.54734,-5.630276" />
  <g
     transform="translate(1,0.6)"
     id="g3044"
     style="font-size:21.59173012px;font-style:normal;font-variant:normal;font-weight:bold;font-stretch:normal;text-align:center;line-height:125%;letter-spacing:0px;word-spacing:0px;text-anchor:middle;fill:#ff0000;fill-opacity:1;stroke:none;font-family:DIN Condensed;-inkscape-font-specification:DIN Condensed">
    <path
       sodipodi:nodetypes="csssccccscscsccccsscccssscsscccssscccscssssccssssscccccssccccsssssc"
       inkscape:connector-curvature="0"
       id="path3046"
       style="font-size:37.66820145px;fill:#ff0000;font-family:Pecita;-inkscape-font-specification:Pecita"
       d="m 20.638302,18.730083 c -1.284952,0 -2.92549,1.049282 -2.941018,3.297475 -0.01473,2.132269 1.232857,3.261568 3.391476,3.160633 1.667612,-0.07798 2.800722,-2.255516 2.805114,-4.063625 0.0041,-1.706085 -1.917795,-2.67815 -3.205868,-2.379925 M 13.86543,28.06417 C 13.300407,27.310807 12.63751,26.190847 12.376355,25.482556 12.176022,24.695654 12.08207,23.530903 12.115201,23.282831 l 0.03515,-0.344058 c 0.222021,-2.173444 1.255499,-3.912613 2.536216,-5.570012 0.334132,-0.316315 0.502461,-0.482122 0.889068,-0.989462 0.02283,-0.02996 0.348937,-0.359025 0.348937,-0.396695 1.092376,-1.017041 1.670175,-1.303417 2.237881,-1.54944 0.380185,-0.164759 2.568517,-0.770692 3.020535,-0.695361 1.575572,-0.116392 2.509767,-0.183909 3.302354,0.120246 0.771018,0.246023 1.406497,0.484643 2.310533,1.238006 0.389131,0.354146 0.409307,0.479762 0.69316,0.941706 0.791032,1.054708 1.250617,2.132119 1.250617,3.827187 0,6.855605 -2.983523,9.964907 -9.349443,9.964907 -1.732735,0 -3.252077,0.248381 -4.570462,-0.806327 -0.527192,-0.509863 -0.552414,-0.607899 -0.989462,-0.994506 m 12.921192,3.208448 c 0,0.602691 1.42047,1.474855 2.173833,1.851537 0.678027,0.339013 1.883412,0.678027 3.013457,0.678027 0.753363,0 1.467737,-0.691953 1.627087,-1.428271 0.347929,-1.607695 1.429832,-4.149744 1.731177,-4.752434 0.150673,-0.339014 0.152233,-1.128487 0.152233,-1.542837 0,-0.527354 -0.376683,-1.017041 -1.130046,-1.167714 -0.753364,-0.150673 -2.079107,-0.601131 -3.209152,-0.82714 0.263677,-1.205381 0.41435,-2.523771 0.452019,-3.879825 0.565022,-0.113004 1.544397,-0.376682 2.260092,-0.602691 0.791031,-0.263677 1.376069,-0.956675 1.376069,-1.559365 0,-1.506727 -0.592767,-3.621193 -0.969449,-4.374556 -0.565022,-1.130045 -2.290032,-1.336042 -3.420076,-1.336042 -0.678027,0 -1.770407,0.301346 -2.410765,0.678028 -0.904036,-0.715695 -1.675057,-1.167714 -2.616761,-1.431392 0,-0.866367 -0.178255,-1.6422688 -0.517267,-2.4709685 -0.60269,-1.5067266 -1.436436,-2.4006767 -2.943163,-2.4006767 -0.678027,0 -2.322819,0.4469746 -3.226855,0.7106517 -0.188341,-0.1883408 -0.522311,-0.3339697 -0.785988,-0.3339697 -0.753363,0 -1.586946,0.69552 -1.586946,1.4112151 0,0.1883409 0.0025,0.2561115 0.04019,0.4821205 0.150673,0.9040359 0.44193,2.0340836 0.44193,2.6367736 0,0.226009 0.07282,0.452019 0.148152,0.602692 -1.393722,0.263677 -2.363173,0.944228 -3.493218,1.961268 -0.376682,-0.41435 -0.904037,-1.017041 -1.05471,-1.24305 -0.452018,-0.678027 -1.188665,-1.476415 -1.603015,-1.476415 -0.602691,0 -0.979374,0.150673 -1.4313921,0.452019 -0.6780268,0.452018 -2.2857255,1.628649 -3.4911067,3.436721 -0.226009,0.339014 -0.2079678,0.323083 -0.2079678,0.925774 0,0.226009 -0.129485,0.932005 0.8875554,2.363396 0.7533633,1.092376 2.8681312,1.839499 3.3954852,1.839499 0.507248,-2.666475 -1.3744954,0.942377 -1.0601053,2.569216 0,0.41435 0.4217536,1.001909 0.4594216,1.378591 -0.7910314,0.41435 -1.770406,0.941705 -2.2600921,1.092378 L 7.153086,25.59304 c -0.5650225,0.188341 -1.7233749,0.887321 -1.7233749,1.791357 0,2.034081 1.6678766,4.472042 1.9692219,5.074732 2.3608766,2.375304 2.3654255,1.113031 3.605671,0.572378 0.724611,-0.646154 1.685708,-1.110209 2.250731,-1.675232 1.01704,0.791032 2.147088,1.356056 3.427806,1.695069 0,0.791032 0.188341,2.636775 0.188341,3.35247 0,0.753364 0.476091,1.577383 1.229454,1.577383 0.226009,0 1.310585,-0.08737 1.498926,-0.125044 1.130045,-0.226009 4.012668,-0.152233 4.954372,-0.152233 0.753364,0 0.980934,-0.923428 0.980934,-1.676792 0,-0.41435 -0.376682,-3.314802 -0.376682,-3.917493" />
    <path
       d="m 20.638302,18.730083 c -1.284952,0 -2.92549,1.049282 -2.941018,3.297475 -0.01473,2.132269 1.232857,3.261568 3.391476,3.160633 1.667612,-0.07798 2.800722,-2.255516 2.805114,-4.063625 0.0041,-1.706085 -1.917795,-2.67815 -3.205868,-2.379925 M 13.86543,28.06417 C 13.300407,27.310807 12.63751,26.190847 12.376355,25.482556 12.176022,24.695654 12.08207,23.530903 12.115201,23.282831 l 0.03515,-0.344058 c 0.222021,-2.173444 1.255499,-3.912613 2.536216,-5.570012 0.334132,-0.316315 0.502461,-0.482122 0.889068,-0.989462 0.02283,-0.02996 0.348937,-0.359025 0.348937,-0.396695 1.092376,-1.017041 1.670175,-1.303417 2.237881,-1.54944 0.380185,-0.164759 2.568517,-0.770692 3.020535,-0.695361 1.575572,-0.116392 2.509767,-0.183909 3.302354,0.120246 0.771018,0.246023 1.406497,0.484643 2.310533,1.238006 0.389131,0.354146 0.409307,0.479762 0.69316,0.941706 0.791032,1.054708 1.250617,2.132119 1.250617,3.827187 0,6.855605 -2.983523,9.964907 -9.349443,9.964907 -1.732735,0 -3.252077,0.248381 -4.570462,-0.806327 -0.527192,-0.509863 -0.552414,-0.607899 -0.989462,-0.994506 m 12.921192,3.208448 c 0,0.602691 1.42047,1.474855 2.173833,1.851537 0.678027,0.339013 1.883412,0.678027 3.013457,0.678027 0.753363,0 1.467737,-0.691953 1.627087,-1.428271 0.347929,-1.607695 1.429832,-4.149744 1.731177,-4.752434 0.150673,-0.339014 0.152233,-1.128487 0.152233,-1.542837 0,-0.527354 -0.376683,-1.017041 -1.130046,-1.167714 -0.753364,-0.150673 -2.079107,-0.601131 -3.209152,-0.82714 0.263677,-1.205381 0.41435,-2.523771 0.452019,-3.879825 0.565022,-0.113004 1.544397,-0.376682 2.260092,-0.602691 0.791031,-0.263677 1.376069,-0.956675 1.376069,-1.559365 0,-1.506727 -0.592767,-3.621193 -0.969449,-4.374556 -0.565022,-1.130045 -2.290032,-1.336042 -3.420076,-1.336042 -0.678027,0 -1.770407,0.301346 -2.410765,0.678028 -0.904036,-0.715695 -1.675057,-1.167714 -2.616761,-1.431392 0,-0.866367 -0.178255,-1.6422688 -0.517267,-2.4709685 -0.60269,-1.5067266 -1.436436,-2.4006767 -2.943163,-2.4006767 -0.678027,0 -2.322819,0.4469746 -3.226855,0.7106517 -0.188341,-0.1883408 -0.522311,-0.3339697 -0.785988,-0.3339697 -0.753363,0 -1.586946,0.69552 -1.586946,1.4112151 0,0.1883409 0.0025,0.2561115 0.04019,0.4821205 0.150673,0.9040359 0.44193,2.0340836 0.44193,2.6367736 0,0.226009 0.07282,0.452019 0.148152,0.602692 -1.393722,0.263677 -2.363173,0.944228 -3.493218,1.961268 -0.376682,-0.41435 -0.904037,-1.017041 -1.05471,-1.24305 -0.452018,-0.678027 -1.188665,-1.476415 -1.603015,-1.476415 -0.602691,0 -0.979374,0.150673 -1.4313921,0.452019 -0.6780268,0.452018 -2.2857255,1.628649 -3.4911067,3.436721 -0.226009,0.339014 -0.2079678,0.323083 -0.2079678,0.925774 0,0.226009 -0.129485,0.932005 0.8875554,2.363396 0.7533633,1.092376 2.8681312,1.839499 3.3954852,1.839499 0.507248,-2.666475 -1.3744954,0.942377 -1.0601053,2.569216 0,0.41435 0.4217536,1.001909 0.4594216,1.378591 -0.7910314,0.41435 -1.770406,0.941705 -2.2600921,1.092378 L 7.153086,25.59304 c -0.5650225,0.188341 -1.7233749,0.887321 -1.7233749,1.791357 0,2.034081 1.6678766,4.472042 1.9692219,5.074732 2.3608766,2.375304 2.3654255,1.113031 3.605671,0.572378 0.724611,-0.646154 1.685708,-1.110209 2.250731,-1.675232 1.01704,0.791032 2.147088,1.356056 3.427806,1.695069 0,0.791032 0.188341,2.636775 0.188341,3.35247 0,0.753364 0.476091,1.577383 1.229454,1.577383 0.226009,0 1.310585,-0.08737 1.498926,-0.125044 1.130045,-0.226009 4.012668,-0.152233 4.954372,-0.152233 0.753364,0 0.980934,-0.923428 0.980934,-1.676792 0,-0.41435 -0.376682,-3.314802 -0.376682,-3.917493"
       style="font-size:37.66820145px;fill:#ff0000;font-family:Pecita;-inkscape-font-specification:Pecita"
       id="path3048"
       inkscape:connector-curvature="0"
       sodipodi:nodetypes="csssccccscscsccccsscccssscsscccssscccscssssccssssscccccssccccsssssc" />
  </g>
</svg>
