<?xml version="1.0" encoding="UTF-8" standalone="no"?>
<!-- Created with Inkscape (http://www.inkscape.org/) -->

<svg
   xmlns:dc="http://purl.org/dc/elements/1.1/"
   xmlns:cc="http://creativecommons.org/ns#"
   xmlns:rdf="http://www.w3.org/1999/02/22-rdf-syntax-ns#"
   xmlns:svg="http://www.w3.org/2000/svg"
   xmlns="http://www.w3.org/2000/svg"
   xmlns:sodipodi="http://sodipodi.sourceforge.net/DTD/sodipodi-0.dtd"
   xmlns:inkscape="http://www.inkscape.org/namespaces/inkscape"
   version="1.1"
   width="42"
   height="68"
   id="svg3173"
   inkscape:version="0.48.2 r9819"
   sodipodi:docname="pointer_u2601-2.svg">
  <sodipodi:namedview
     pagecolor="#ffffff"
     bordercolor="#666666"
     borderopacity="1"
     objecttolerance="10"
     gridtolerance="10"
     guidetolerance="10"
     inkscape:pageopacity="0"
     inkscape:pageshadow="2"
     inkscape:window-width="976"
     inkscape:window-height="655"
     id="namedview14"
     showgrid="false"
     showguides="true"
     inkscape:guide-bbox="true"
     inkscape:zoom="10.059524"
     inkscape:cx="21"
     inkscape:cy="53.377857"
     inkscape:window-x="430"
     inkscape:window-y="5"
     inkscape:window-maximized="0"
     inkscape:current-layer="svg3173" />
  <defs
     id="defs3175" />
  <metadata
     id="metadata3178">
    <rdf:RDF>
      <cc:Work
         rdf:about="">
        <dc:format>image/svg+xml</dc:format>
        <dc:type
           rdf:resource="http://purl.org/dc/dcmitype/StillImage" />
        <dc:title></dc:title>
      </cc:Work>
    </rdf:RDF>
  </metadata>
  <path
     inkscape:connector-curvature="0"
     style="fill:#ff34b3"
     id="path145"
     d="M 5.5285752,34.508547 C 13.778923,45.848174 16.286296,59.29243 20.143266,66.74707 c 0.896045,1.120357 1.492123,1.19176 2.127964,0.09172 C 25.75681,59.076414 27.337526,43.890084 35.608501,34.392033 26.483169,39.382547 3.4894727,24.309577 5.5285752,34.508547 z" />
  <path
     inkscape:connector-curvature="0"
     style="fill:#ff34b3;fill-opacity:1"
     id="path2993"
     d="M 8.5864599,7.7980952 C 11.618812,5.9738143 14.051218,5.263712 18.956327,4.6903876 c 5.422472,-1.009092 12.573477,0.5409954 16.750675,3.6779301 4.177197,3.1369343 6.532123,9.5548533 5.550105,15.5502243 -0.837169,5.111052 -1.964095,7.398446 -5.182108,10.60177 -3.258118,3.243244 -9.448158,4.666478 -14.358896,4.921289 C 16.811962,39.69607 10.169271,39.86143 6.6964448,36.849213 3.2236195,33.836997 -1.7863364,23.636562 1.6854613,15.514467 2.872563,12.290989 5.9636572,9.8880342 8.5864599,7.7980952 z" />
  <text
     xml:space="preserve"
     style="font-size:22px;font-style:normal;font-variant:normal;font-weight:bold;font-stretch:normal;text-align:center;line-height:125%;letter-spacing:0px;word-spacing:0px;text-anchor:middle;fill:#ff34b3;fill-opacity:1;stroke:none;font-family:Pecita;-inkscape-font-specification:Pecita Bold"
     x="-72.610168"
     y="-16.360067"
     id="text2991"
     sodipodi:linespacing="125%"
     transform="scale(1,-1)"><tspan
       sodipodi:role="line"
       id="tspan2993"
       x="-72.610168"
       y="-16.360067" /></text>
  <g
     style="font-size:29.01057243px;font-style:normal;font-variant:normal;font-weight:bold;font-stretch:normal;text-align:center;line-height:125%;letter-spacing:0px;word-spacing:0px;text-anchor:middle;fill:#cda000;fill-opacity:1;stroke:none;font-family:DIN Condensed;-inkscape-font-specification:DIN Condensed"
     id="text2995">
    <path
       d="m 13.515751,29.570197 c 0.151833,0.202443 0.404887,0.404887 0.607331,0.60733 1.518324,1.518325 3.441541,3.441539 6.579412,3.441539 4.200697,0 6.478191,-2.986043 7.692851,-4.504367 0.556719,-0.708551 0.860385,-1.214661 0.961606,-1.619548 0.354276,0.05061 0.657942,0.05061 0.961607,0.05061 4.048865,0 7.591629,-2.479937 7.591629,-7.08552 0,-5.314136 -6.610822,-11.2065967 -9.042117,-9.119023 -0.822466,-0.759163 -1.849195,-1.7668466 -5.128925,-2.0153673 -6.055936,-0.458887 -8.918393,1.6449373 -9.98122,3.0620403 -0.759162,1.012216 -0.96342,2.266609 -0.96342,2.722106 0,1.012216 1.14512,2.786044 2.065071,3.208267 1.299561,0.59645 2.80066,0.289157 3.559822,-0.72306 0.759162,-1.012216 1.049525,-2.852041 5.170634,-2.747494 1.924436,0.04882 2.88107,0.310151 4.161878,0.668821 0.68691,0.192358 0.931638,-0.500817 1.21557,-0.393132 1.703703,0.646154 2.799455,2.588805 2.824398,4.39243 0.02131,1.540821 -1.24277,3.005082 -3.014148,3.005082 -1.518325,0 -3.233824,0.0833 -3.551828,0.239455 -1.012217,0.497041 -1.49665,0.81254 -1.468622,1.56803 0.01539,0.414935 0.405794,1.117066 0.671542,1.568031 -0.571616,1.242734 -1.394275,1.896835 -3.179583,2.001931 -2.020935,0.118967 -2.447457,-0.673356 -3.459673,-1.685572 -1.012216,-1.012216 -1.519233,-1.617734 -2.075951,-1.617734 -1.720768,0 -2.937246,1.111625 -4.45557,1.111625 -1.5183247,0 -2.1344619,-0.766481 -2.0425693,-2.282022 0.099408,-1.639493 0.9770233,-1.523025 2.3182913,-1.622433 1.009447,-0.07482 1.31951,-1.152264 1.31951,-2.16448 0,-1.012217 -2.345164,-2.512409 -3.3573795,-2.512409 -4.4031409,0 -6.0010972,3.486714 -6.0010972,7.889854 0,3.239092 2.8342116,5.567195 6.0733036,5.567195 1.1640491,0 2.7329881,-0.404887 3.9476471,-1.012217"
       style="font-size:50.61086273px;fill:#cda000;font-family:Pecita;-inkscape-font-specification:Pecita"
       id="path3012"
       inkscape:connector-curvature="0"
       sodipodi:nodetypes="cssccsscsssssssssssscssssssssssc" />
  </g>
</svg>
