<?xml version="1.0" encoding="UTF-8" standalone="no"?>
<!-- Created with Inkscape (http://www.inkscape.org/) -->

<svg
   xmlns:dc="http://purl.org/dc/elements/1.1/"
   xmlns:cc="http://creativecommons.org/ns#"
   xmlns:rdf="http://www.w3.org/1999/02/22-rdf-syntax-ns#"
   xmlns:svg="http://www.w3.org/2000/svg"
   xmlns="http://www.w3.org/2000/svg"
   xmlns:sodipodi="http://sodipodi.sourceforge.net/DTD/sodipodi-0.dtd"
   xmlns:inkscape="http://www.inkscape.org/namespaces/inkscape"
   version="1.1"
   width="42"
   height="68"
   id="svg3173"
   inkscape:version="0.48.2 r9819"
   sodipodi:docname="pointer_u2699.svg">
  <sodipodi:namedview
     pagecolor="#ffffff"
     bordercolor="#666666"
     borderopacity="1"
     objecttolerance="10"
     gridtolerance="10"
     guidetolerance="10"
     inkscape:pageopacity="0"
     inkscape:pageshadow="2"
     inkscape:window-width="976"
     inkscape:window-height="655"
     id="namedview14"
     showgrid="false"
     showguides="true"
     inkscape:guide-bbox="true"
     inkscape:zoom="10.059524"
     inkscape:cx="19.386"
     inkscape:cy="49.368667"
     inkscape:window-x="96"
     inkscape:window-y="34"
     inkscape:window-maximized="0"
     inkscape:current-layer="svg3173" />
  <defs
     id="defs3175" />
  <metadata
     id="metadata3178">
    <rdf:RDF>
      <cc:Work
         rdf:about="">
        <dc:format>image/svg+xml</dc:format>
        <dc:type
           rdf:resource="http://purl.org/dc/dcmitype/StillImage" />
        <dc:title></dc:title>
      </cc:Work>
    </rdf:RDF>
  </metadata>
  <path
     inkscape:connector-curvature="0"
     style="fill:#ff34b3"
     id="path145"
     d="M 5.5285752,34.508547 C 13.778923,45.848174 16.286296,59.29243 20.143266,66.74707 c 0.896045,1.120357 1.492123,1.19176 2.127964,0.09172 C 25.75681,59.076414 27.337526,43.890084 35.608501,34.392033 26.483169,39.382547 3.4894727,24.309577 5.5285752,34.508547 z" />
  <path
     inkscape:connector-curvature="0"
     style="fill:#ff34b3;fill-opacity:1"
     id="path2993"
     d="M 8.5864599,7.7980952 C 11.618812,5.9738143 14.051218,5.263712 18.956327,4.6903876 c 5.422472,-1.009092 12.573477,0.5409954 16.750675,3.6779301 4.177197,3.1369343 6.532123,9.5548533 5.550105,15.5502243 -0.837169,5.111052 -1.964095,7.398446 -5.182108,10.60177 -3.258118,3.243244 -9.448158,4.666478 -14.358896,4.921289 C 16.811962,39.69607 10.169271,39.86143 6.6964448,36.849213 3.2236195,33.836997 -1.7863364,23.636562 1.6854613,15.514467 2.872563,12.290989 5.9636572,9.8880342 8.5864599,7.7980952 z" />
  <text
     xml:space="preserve"
     style="font-size:22px;font-style:normal;font-variant:normal;font-weight:bold;font-stretch:normal;text-align:center;line-height:125%;letter-spacing:0px;word-spacing:0px;text-anchor:middle;fill:#ff34b3;fill-opacity:1;stroke:none;font-family:Pecita;-inkscape-font-specification:Pecita Bold"
     x="-72.610168"
     y="-16.360067"
     id="text2991"
     sodipodi:linespacing="125%"
     transform="scale(1,-1)"><tspan
       sodipodi:role="line"
       id="tspan2993"
       x="-72.610168"
       y="-16.360067" /></text>
  <g
     style="font-size:21.59173012px;font-style:normal;font-variant:normal;font-weight:bold;font-stretch:normal;text-align:center;line-height:125%;letter-spacing:0px;word-spacing:0px;text-anchor:middle;fill:#696969;fill-opacity:1;stroke:none;font-family:DIN Condensed;-inkscape-font-specification:DIN Condensed"
     id="text2995">
    <path
       d="m 20.638302,18.730083 c -1.284952,0 -2.92549,1.049282 -2.941018,3.297475 -0.01473,2.132269 1.232857,3.261568 3.391476,3.160633 1.667612,-0.07798 2.800722,-2.255516 2.805114,-4.063625 0.0041,-1.706085 -1.917795,-2.67815 -3.205868,-2.379925 M 13.86543,28.06417 C 13.300407,27.310807 12.63751,26.190847 12.376355,25.482556 12.176022,24.695654 12.08207,23.530903 12.115201,23.282831 l 0.03515,-0.344058 c 0.222021,-2.173444 1.255499,-3.912613 2.536216,-5.570012 0.334132,-0.316315 0.502461,-0.482122 0.889068,-0.989462 0.02283,-0.02996 0.348937,-0.359025 0.348937,-0.396695 1.092376,-1.017041 1.670175,-1.303417 2.237881,-1.54944 0.380185,-0.164759 2.568517,-0.770692 3.020535,-0.695361 1.575572,-0.116392 2.509767,-0.183909 3.302354,0.120246 0.771018,0.246023 1.406497,0.484643 2.310533,1.238006 0.389131,0.354146 0.409307,0.479762 0.69316,0.941706 0.791032,1.054708 1.250617,2.132119 1.250617,3.827187 0,6.855605 -2.983523,9.964907 -9.349443,9.964907 -1.732735,0 -3.252077,0.248381 -4.570462,-0.806327 -0.527192,-0.509863 -0.552414,-0.607899 -0.989462,-0.994506 m 12.921192,3.208448 c 0,0.602691 1.42047,1.474855 2.173833,1.851537 0.678027,0.339013 1.883412,0.678027 3.013457,0.678027 0.753363,0 1.467737,-0.691953 1.627087,-1.428271 0.347929,-1.607695 1.429832,-4.149744 1.731177,-4.752434 0.150673,-0.339014 0.152233,-1.128487 0.152233,-1.542837 0,-0.527354 -0.376683,-1.017041 -1.130046,-1.167714 -0.753364,-0.150673 -2.079107,-0.601131 -3.209152,-0.82714 0.263677,-1.205381 0.41435,-2.523771 0.452019,-3.879825 0.565022,-0.113004 1.544397,-0.376682 2.260092,-0.602691 0.791031,-0.263677 1.376069,-0.956675 1.376069,-1.559365 0,-1.506727 -0.592767,-3.621193 -0.969449,-4.374556 -0.565022,-1.130045 -2.290032,-1.336042 -3.420076,-1.336042 -0.678027,0 -1.770407,0.301346 -2.410765,0.678028 -0.904036,-0.715695 -1.675057,-1.167714 -2.616761,-1.431392 0,-0.866367 -0.178255,-1.6422688 -0.517267,-2.4709685 -0.60269,-1.5067266 -1.436436,-2.4006767 -2.943163,-2.4006767 -0.678027,0 -2.322819,0.4469746 -3.226855,0.7106517 -0.188341,-0.1883408 -0.522311,-0.3339697 -0.785988,-0.3339697 -0.753363,0 -1.586946,0.69552 -1.586946,1.4112151 0,0.1883409 0.0025,0.2561115 0.04019,0.4821205 0.150673,0.9040359 0.44193,2.0340836 0.44193,2.6367736 0,0.226009 0.07282,0.452019 0.148152,0.602692 -1.393722,0.263677 -2.363173,0.944228 -3.493218,1.961268 -0.376682,-0.41435 -0.904037,-1.017041 -1.05471,-1.24305 -0.452018,-0.678027 -1.188665,-1.476415 -1.603015,-1.476415 -0.602691,0 -0.979374,0.150673 -1.4313921,0.452019 -0.6780268,0.452018 -2.2857255,1.628649 -3.4911067,3.436721 -0.226009,0.339014 -0.2079678,0.323083 -0.2079678,0.925774 0,0.226009 -0.129485,0.932005 0.8875554,2.363396 0.7533633,1.092376 2.8681312,1.839499 3.3954852,1.839499 0.507248,-2.666475 -1.3744954,0.942377 -1.0601053,2.569216 0,0.41435 0.4217536,1.001909 0.4594216,1.378591 -0.7910314,0.41435 -1.770406,0.941705 -2.2600921,1.092378 L 7.153086,25.59304 c -0.5650225,0.188341 -1.7233749,0.887321 -1.7233749,1.791357 0,2.034081 1.6678766,4.472042 1.9692219,5.074732 2.3608766,2.375304 2.3654255,1.113031 3.605671,0.572378 0.724611,-0.646154 1.685708,-1.110209 2.250731,-1.675232 1.01704,0.791032 2.147088,1.356056 3.427806,1.695069 0,0.791032 0.188341,2.636775 0.188341,3.35247 0,0.753364 0.476091,1.577383 1.229454,1.577383 0.226009,0 1.310585,-0.08737 1.498926,-0.125044 1.130045,-0.226009 4.012668,-0.152233 4.954372,-0.152233 0.753364,0 0.980934,-0.923428 0.980934,-1.676792 0,-0.41435 -0.376682,-3.314802 -0.376682,-3.917493"
       style="font-size:37.66820145px;fill:#696969;font-family:Pecita;-inkscape-font-specification:Pecita"
       id="path3025"
       inkscape:connector-curvature="0"
       sodipodi:nodetypes="csssccccscscsccccsscccssscsscccssscccscssssccssssscccccssccccsssssc" />
  </g>
</svg>
