<?xml version="1.0" encoding="UTF-8" standalone="no"?>
<!-- Created with Inkscape (http://www.inkscape.org/) -->

<svg
   xmlns:dc="http://purl.org/dc/elements/1.1/"
   xmlns:cc="http://creativecommons.org/ns#"
   xmlns:rdf="http://www.w3.org/1999/02/22-rdf-syntax-ns#"
   xmlns:svg="http://www.w3.org/2000/svg"
   xmlns="http://www.w3.org/2000/svg"
   version="1.1"
   width="42"
   height="68"
   id="svg3173">
  <defs
     id="defs3175" />
  <metadata
     id="metadata3178">
    <rdf:RDF>
      <cc:Work
         rdf:about="">
        <dc:format>image/svg+xml</dc:format>
        <dc:type
           rdf:resource="http://purl.org/dc/dcmitype/StillImage" />
        <dc:title></dc:title>
      </cc:Work>
    </rdf:RDF>
  </metadata>
  <g
     transform="matrix(0.9272804,0,0,0.9272804,1.4829295,4.9177867)"
     id="g4033">
    <path
       d="m 4.3629151,31.91134 c 8.8973599,12.228909 11.6013679,26.727496 15.7608109,34.766747 0.966315,1.208218 1.609139,1.285221 2.294844,0.09891 C 26.177498,58.40588 27.882177,42.0286 36.801782,31.785689 26.96082,37.167571 2.1639012,20.912542 4.3629151,31.91134 z"
       id="path145"
       style="fill:#838383" />
    <path
       d="M 7.6606067,3.1061893 C 10.930763,1.1388439 13.553925,0.37305357 18.843704,-0.24523233 24.69142,-1.3334598 32.403224,0.33818933 36.908008,3.7211301 c 4.504783,3.3829407 7.044388,10.3041679 5.985358,16.7697109 -0.902822,5.511873 -2.118124,7.97865 -5.588502,11.433187 -3.513627,3.497587 -10.189105,5.032435 -15.484955,5.307228 C 16.531173,37.505681 9.3675452,37.684009 5.6223719,34.435567 1.8771992,31.187126 -3.5256497,20.186748 0.21841483,11.427698 1.498612,7.9514272 4.8321173,5.3600265 7.6606067,3.1061893 z"
       id="path2993"
       style="fill:#838383;fill-opacity:1" />
    <g
       transform="matrix(0.95549764,0,0,0.95549764,-307.22957,-45.936558)"
       id="g3800"
       style="fill:#cda000">
      <g
         id="g3802"
         style="fill:#cda000">
        <g
           id="g3804"
           style="fill:#cda000">
          <path
             d="m 363.562,62.833 c -1.579,-8.057 -9.201,-11.158 -15.25,-11.365 -4.31,-0.148 -8.512,1.045 -11.244,3.196 -0.388,0.304 -0.861,1.825 -0.469,3.021 0.353,1.078 1.331,1.476 2.842,1.177 0.861,-0.168 1.694,-0.514 2.58,-0.879 1.07,-0.443 2.177,-0.9 3.338,-1.017 1.241,-0.126 2.326,-0.171 3.313,-0.137 3.891,0.134 6.697,1.566 8.58,4.381 2.396,3.582 2.024,9.17 -0.865,13 -2.908,3.853 -8.64,6.312 -14.258,6.12 -2.088,-0.073 -4.022,-0.494 -5.754,-1.253 -6.188,-2.712 -8.472,-8.105 -6.982,-16.487 0.254,-1.426 -0.503,-3.876 -1.327,-4.301 -0.379,-0.195 -0.726,-0.299 -1.031,-0.309 -1.188,-0.042 -1.831,1.39 -2.452,2.773 -0.069,0.155 -0.138,0.308 -0.207,0.457 -0.243,0.527 -0.382,1.139 -0.517,1.73 -1.282,5.61 -0.147,11.062 3.183,15.392 3.468,4.505 8.9,7.208 14.903,7.415 1.765,0.06 3.571,-0.096 5.364,-0.465 9.253,-1.893 14.767,-6.462 16.396,-13.578 0.686,-3.936 0.136,-7.479 -0.132,-8.821 l -0.011,-0.05 z"
             id="path3806"
             style="fill:#cda000" />
        </g>
        <g
           id="g3808"
           style="fill:#cda000">
          <path
             d="m 354.587,66.577 c 0.777,-0.746 1.192,-1.646 1.199,-2.601 0.018,-2.597 -3.016,-4.701 -7.056,-4.898 l -0.169,-0.006 c -4.093,-0.14 -7.417,1.802 -7.564,4.421 -0.053,0.941 0.302,1.857 1.026,2.65 1.284,1.407 3.606,2.301 6.211,2.39 l -0.016,0.453 0,0 0.027,-0.452 c 2.606,0.087 4.975,-0.645 6.342,-1.957 z"
             id="path3810"
             style="fill:#cda000" />
        </g>
      </g>
    </g>
  </g>
</svg>
