<?xml version="1.0" encoding="UTF-8" standalone="no"?>
<!-- Created with Inkscape (http://www.inkscape.org/) -->

<svg
   xmlns:dc="http://purl.org/dc/elements/1.1/"
   xmlns:cc="http://creativecommons.org/ns#"
   xmlns:rdf="http://www.w3.org/1999/02/22-rdf-syntax-ns#"
   xmlns:svg="http://www.w3.org/2000/svg"
   xmlns="http://www.w3.org/2000/svg"
   xmlns:sodipodi="http://sodipodi.sourceforge.net/DTD/sodipodi-0.dtd"
   xmlns:inkscape="http://www.inkscape.org/namespaces/inkscape"
   version="1.1"
   width="42"
   height="68"
   id="svg3173"
   inkscape:version="0.48.2 r9819"
   sodipodi:docname="pointer_u2601-4.svg">
  <sodipodi:namedview
     pagecolor="#ffffff"
     bordercolor="#666666"
     borderopacity="1"
     objecttolerance="10"
     gridtolerance="10"
     guidetolerance="10"
     inkscape:pageopacity="0"
     inkscape:pageshadow="2"
     inkscape:window-width="483"
     inkscape:window-height="639"
     id="namedview14"
     showgrid="false"
     showguides="true"
     inkscape:guide-bbox="true"
     inkscape:zoom="5"
     inkscape:cx="17.023669"
     inkscape:cy="37.218449"
     inkscape:window-x="78"
     inkscape:window-y="5"
     inkscape:window-maximized="0"
     inkscape:current-layer="svg3173" />
  <defs
     id="defs3175" />
  <metadata
     id="metadata3178">
    <rdf:RDF>
      <cc:Work
         rdf:about="">
        <dc:format>image/svg+xml</dc:format>
        <dc:type
           rdf:resource="http://purl.org/dc/dcmitype/StillImage" />
        <dc:title></dc:title>
      </cc:Work>
    </rdf:RDF>
  </metadata>
  <path
     inkscape:connector-curvature="0"
     style="fill:#000000"
     id="path145"
     d="M 4.1285752,34.708547 C 14.378923,42.448174 16.286296,59.29243 20.143266,66.74707 c 0.896045,1.120357 1.492123,1.19176 2.127964,0.09172 3.48558,-7.762376 9.066296,-29.548706 17.337271,-39.046757 -9.125332,4.990514 -37.5190283,-3.282456 -35.4799258,6.916514 z"
     sodipodi:nodetypes="ccccc" />
  <text
     xml:space="preserve"
     style="font-size:22px;font-style:normal;font-variant:normal;font-weight:bold;font-stretch:normal;text-align:center;line-height:125%;letter-spacing:0px;word-spacing:0px;text-anchor:middle;fill:#000000;fill-opacity:1;stroke:none;font-family:Pecita;-inkscape-font-specification:Pecita Bold"
     x="-72.610168"
     y="-16.360067"
     id="text2991"
     sodipodi:linespacing="125%"
     transform="scale(1,-1)"><tspan
       sodipodi:role="line"
       id="tspan2993"
       x="-72.610168"
       y="-16.360067" /></text>
  <g
     id="g2999"
     style="font-size:29.01057243px;font-style:normal;font-variant:normal;font-weight:bold;font-stretch:normal;text-align:center;line-height:125%;letter-spacing:0px;word-spacing:0px;text-anchor:middle;fill:#000000;fill-opacity:1;stroke:none;font-family:DIN Condensed;-inkscape-font-specification:DIN Condensed"
     transform="matrix(1.2253017,0,0,1.5223981,-4.2654913,-11.132952)">
    <path
       sodipodi:nodetypes="cssccsscssscsssc"
       inkscape:connector-curvature="0"
       id="path3001"
       style="font-size:50.61086273px;fill:#000000;font-family:Pecita;-inkscape-font-specification:Pecita"
       d="m 13.515751,29.570197 c 0.151833,0.202443 0.404887,0.404887 0.607331,0.60733 1.518324,1.518325 3.441541,3.441539 6.579412,3.441539 4.200697,0 6.478191,-2.986043 7.692851,-4.504367 0.556719,-0.708551 0.860385,-1.214661 0.961606,-1.619548 0.354276,0.05061 0.657942,0.05061 0.961607,0.05061 4.048865,0 7.591629,-2.479937 7.591629,-7.08552 0,-5.314136 -6.610822,-11.2065967 -9.042117,-9.119023 -0.822466,-0.759163 -1.849195,-1.7668466 -5.128925,-2.0153673 -6.055936,-0.458887 -8.918393,1.6449373 -9.98122,3.0620403 -0.759162,1.012216 -1.361053,2.465426 -1.261645,3.517372 0.09523,1.007727 0.349854,2.786045 0.303722,1.609958 -0.04613,-1.176086 -2.391297,-0.787521 -3.4035128,-0.787521 -4.4031409,0 -5.9016889,3.884347 -5.9016889,8.287487 0,3.239092 2.8342116,5.567195 6.0733036,5.567195 1.1640491,0 2.7329881,-0.404887 3.9476471,-1.012217" />
  </g>
  <g
     id="g3007"
     style="font-size:29.01057243px;font-style:normal;font-variant:normal;font-weight:bold;font-stretch:normal;text-align:center;line-height:125%;letter-spacing:0px;word-spacing:0px;text-anchor:middle;fill:#ff0000;fill-opacity:1;stroke:none;font-family:DIN Condensed;-inkscape-font-specification:DIN Condensed"
     transform="translate(0.1964497,-0.1337279)">
    <path
       sodipodi:nodetypes="cssccsscsssssssssssscssssssssssc"
       inkscape:connector-curvature="0"
       id="path3009"
       style="font-size:50.61086273px;fill:#ff0000;font-family:Pecita;-inkscape-font-specification:Pecita"
       d="m 13.515751,30.570197 c 0.151833,0.212443 0.404887,0.424887 0.607331,0.63733 1.518324,1.593325 3.441541,3.611539 6.579412,3.611539 4.200697,0 6.478191,-3.133543 7.692851,-4.726867 0.556719,-0.743551 0.860385,-1.274661 0.961606,-1.699548 0.354276,0.05311 0.657942,0.05311 0.961607,0.05311 4.048865,0 7.591629,-2.602437 7.591629,-7.43552 0,-5.576636 -6.610822,-11.7601634 -9.042117,-9.569471 -0.822466,-0.796663 -1.849195,-1.8541225 -5.128925,-2.1149193 -6.055936,-0.4815544 -8.918393,1.7261913 -9.98122,3.2132943 -0.759162,1.062216 -0.96342,2.378572 -0.96342,2.856569 0,1.062216 1.14512,2.923664 2.065071,3.366744 1.299561,0.625912 2.80066,0.30344 3.559822,-0.758777 0.759162,-1.062216 1.049525,-2.992922 5.170634,-2.88321 1.924436,0.05123 2.88107,0.325471 4.161878,0.701858 0.68691,0.20186 0.931638,-0.525556 1.21557,-0.412551 1.703703,0.678071 2.799455,2.716683 2.824398,4.6094 0.02131,1.616933 -1.24277,3.153523 -3.014148,3.153523 -1.518325,0 -3.233824,0.08742 -3.551828,0.251283 -1.012217,0.521593 -1.49665,0.852677 -1.468622,1.645485 0.01539,0.435432 0.405794,1.172246 0.671542,1.645487 -0.571616,1.30412 -1.394275,1.990532 -3.179583,2.100819 -2.020935,0.124844 -2.447457,-0.706617 -3.459673,-1.768833 -1.012216,-1.062216 -1.519233,-1.697645 -2.075951,-1.697645 -1.720768,0 -2.937246,1.166536 -4.45557,1.166536 -1.5183247,0 -2.1344619,-0.804343 -2.0425693,-2.394746 0.099408,-1.720479 0.9770233,-1.598257 2.3182913,-1.702576 1.009447,-0.07852 1.31951,-1.209182 1.31951,-2.271398 0,-1.062217 -2.345164,-2.636513 -3.3573795,-2.636513 -4.4031409,0 -6.0010972,3.658946 -6.0010972,8.279585 0,3.399092 2.8342116,5.842195 6.0733036,5.842195 1.1640491,0 2.7329881,-0.424887 3.9476471,-1.062217" />
  </g>
</svg>
