<?xml version="1.0" encoding="UTF-8" standalone="no"?>
<!-- Created with Inkscape (http://www.inkscape.org/) -->

<svg
   xmlns:dc="http://purl.org/dc/elements/1.1/"
   xmlns:cc="http://creativecommons.org/ns#"
   xmlns:rdf="http://www.w3.org/1999/02/22-rdf-syntax-ns#"
   xmlns:svg="http://www.w3.org/2000/svg"
   xmlns="http://www.w3.org/2000/svg"
   version="1.1"
   width="40.69141"
   height="67.871773"
   id="svg3173">
  <defs
     id="defs3175" />
  <metadata
     id="metadata3178">
    <rdf:RDF>
      <cc:Work
         rdf:about="">
        <dc:format>image/svg+xml</dc:format>
        <dc:type
           rdf:resource="http://purl.org/dc/dcmitype/StillImage" />
        <dc:title></dc:title>
      </cc:Work>
    </rdf:RDF>
  </metadata>
  <g
     transform="translate(-236.79715,-398.42629)"
     id="layer1">
    <path
       d="m 265.50336,435.68961 c -2.251,6.83 -4.917,13.5 -7.767,20.096 -4.72,-11.153 -8.701,-19.552 -12.23,-31.159 -1.115,-3.666 -7.792,-5.015 -6.667,-1.316 4.324,14.213 10.521,27.717 16.196,41.418 1.113,2.688 4.563,1.528 5.484,-0.527 3.934,-8.761 7.681,-17.6 10.692,-26.728 1.211,-3.669 -4.503,-5.439 -5.708,-1.784 z"
       id="path145" />
    <path
       d="m 244.87838,408.71937 c 12.84116,1.63216 20.47907,14.56499 26.26396,19.1929"
       id="path3782"
       style="fill:#ff0000;stroke:#ff0000;stroke-width:7.5;stroke-linecap:round;stroke-linejoin:round;stroke-miterlimit:4;stroke-opacity:1;stroke-dasharray:none" />
    <path
       d="m 272.15249,414.78029 c -18.33038,2.24941 -21.32284,11.1665 -29.29442,15.15229"
       id="path3786"
       style="fill:none;stroke:#ff0000;stroke-width:7.5;stroke-linecap:round;stroke-linejoin:miter;stroke-miterlimit:4;stroke-opacity:1;stroke-dasharray:none" />
  </g>
</svg>
