<?xml version="1.0" encoding="UTF-8" standalone="no"?>
<!-- Created with Inkscape (http://www.inkscape.org/) -->

<svg
   xmlns:dc="http://purl.org/dc/elements/1.1/"
   xmlns:cc="http://creativecommons.org/ns#"
   xmlns:rdf="http://www.w3.org/1999/02/22-rdf-syntax-ns#"
   xmlns:svg="http://www.w3.org/2000/svg"
   xmlns="http://www.w3.org/2000/svg"
   xmlns:sodipodi="http://sodipodi.sourceforge.net/DTD/sodipodi-0.dtd"
   xmlns:inkscape="http://www.inkscape.org/namespaces/inkscape"
   version="1.1"
   width="42"
   height="68"
   id="svg3173"
   inkscape:version="0.48.2 r9819"
   sodipodi:docname="pointer_u2601-2.svg">
  <sodipodi:namedview
     pagecolor="#ffffff"
     bordercolor="#666666"
     borderopacity="1"
     objecttolerance="10"
     gridtolerance="10"
     guidetolerance="10"
     inkscape:pageopacity="0"
     inkscape:pageshadow="2"
     inkscape:window-width="976"
     inkscape:window-height="655"
     id="namedview14"
     showgrid="false"
     showguides="true"
     inkscape:guide-bbox="true"
     inkscape:zoom="10.059524"
     inkscape:cx="21"
     inkscape:cy="41.448863"
     inkscape:window-x="430"
     inkscape:window-y="5"
     inkscape:window-maximized="0"
     inkscape:current-layer="svg3173" />
  <defs
     id="defs3175" />
  <metadata
     id="metadata3178">
    <rdf:RDF>
      <cc:Work
         rdf:about="">
        <dc:format>image/svg+xml</dc:format>
        <dc:type
           rdf:resource="http://purl.org/dc/dcmitype/StillImage" />
        <dc:title></dc:title>
      </cc:Work>
    </rdf:RDF>
  </metadata>
  <path
     inkscape:connector-curvature="0"
     style="fill:#000000"
     id="path145"
     d="M 5.5285752,34.508547 C 13.778923,45.848174 16.286296,59.29243 20.143266,66.74707 c 0.896045,1.120357 1.492123,1.19176 2.127964,0.09172 C 25.75681,59.076414 27.337526,43.890084 35.608501,34.392033 26.483169,39.382547 3.4894727,24.309577 5.5285752,34.508547 z" />
  <path
     inkscape:connector-curvature="0"
     style="fill:#000000;fill-opacity:1"
     id="path2993"
     d="M 8.5864599,7.7980952 C 11.618812,5.9738143 14.051218,5.263712 18.956327,4.6903876 c 5.422472,-1.009092 12.573477,0.5409954 16.750675,3.6779301 4.177197,3.1369343 6.532123,9.5548533 5.550105,15.5502243 -0.837169,5.111052 -1.964095,7.398446 -5.182108,10.60177 -3.258118,3.243244 -9.448158,4.666478 -14.358896,4.921289 C 16.811962,39.69607 10.169271,39.86143 6.6964448,36.849213 3.2236195,33.836997 -1.7863364,23.636562 1.6854613,15.514467 2.872563,12.290989 5.9636572,9.8880342 8.5864599,7.7980952 z" />
  <text
     xml:space="preserve"
     style="font-size:22px;font-style:normal;font-variant:normal;font-weight:bold;font-stretch:normal;text-align:center;line-height:125%;letter-spacing:0px;word-spacing:0px;text-anchor:middle;fill:#000000;fill-opacity:1;stroke:none;font-family:Pecita;-inkscape-font-specification:Pecita Bold"
     x="-72.610168"
     y="-16.360067"
     id="text2991"
     sodipodi:linespacing="125%"
     transform="scale(1,-1)"><tspan
       sodipodi:role="line"
       id="tspan2993"
       x="-72.610168"
       y="-16.360067" /></text>
  <g
     style="font-size:29.01057243px;font-style:normal;font-variant:normal;font-weight:bold;font-stretch:normal;text-align:center;line-height:125%;letter-spacing:0px;word-spacing:0px;text-anchor:middle;fill:#ff0000;fill-opacity:1;stroke:none;font-family:DIN Condensed;-inkscape-font-specification:DIN Condensed"
     id="text2995">
    <path
       d="m 13.515751,29.570197 c 0.151833,0.202443 0.404887,0.404887 0.607331,0.60733 1.518324,1.518325 3.441541,3.441539 6.579412,3.441539 4.200697,0 6.478191,-2.986043 7.692851,-4.504367 0.556719,-0.708551 0.860385,-1.214661 0.961606,-1.619548 0.354276,0.05061 0.657942,0.05061 0.961607,0.05061 4.048865,0 7.591629,-2.479937 7.591629,-7.08552 0,-5.314136 -2.783603,-9.616064 -8.097738,-9.616064 -1.518324,-0.759163 -3.34032,-1.5183263 -6.073304,-1.5183263 -6.073297,0 -9.514843,3.0366533 -10.57767,4.4537563 -0.759162,1.012216 -1.062828,1.670159 -1.062828,2.125656 0,1.012216 0.953447,1.717143 1.965663,1.717143 0.404886,0 1.707169,0.09034 2.466331,-0.921877 0.759162,-1.012216 2.043481,-2.648086 7.357616,-2.648086 2.024433,0 2.544146,0.108477 4.06247,0.867639 0.202444,0.101222 1.511254,-0.03738 1.812018,0.0045 2.49897,0.347929 3.66937,2.291093 3.818482,4.98888 0.156414,2.829886 -1.640403,3.601532 -3.411781,3.601532 -1.518325,0 -3.39637,-0.05877 -3.750645,-0.05877 -1.012217,0 -1.717142,0.356995 -1.965663,1.070989 -0.282831,0.812568 0.107569,1.315882 0.671542,2.065072 -0.571616,1.242734 -1.394275,2.493285 -4.372482,2.598381 -2.023174,0.07139 -2.745682,-1.269806 -3.757898,-2.282022 -1.012216,-1.012216 -1.618642,-1.518326 -2.17536,-1.518326 -1.720768,0 -3.434287,1.310442 -4.9526113,1.310442 -1.5183244,0 -2.0425689,-0.962514 -2.0425689,-2.480839 0,-2.732984 0.9770234,-3.113557 3.7100072,-3.113557 1.012216,0 2.413001,-0.754631 2.413001,-1.766847 0,-1.012217 -1.848122,-1.915959 -2.860338,-1.915959 -4.4031409,0 -7.5916297,3.188489 -7.5916297,7.591629 0,3.239092 2.8342116,5.567195 6.0733036,5.567195 1.1640491,0 2.7329881,-0.404887 3.9476471,-1.012217"
       style="font-size:50.61086273px;fill:#ff0000;font-family:Pecita;-inkscape-font-specification:Pecita"
       id="path3012"
       inkscape:connector-curvature="0"
       sodipodi:nodetypes="cssccsscsssssssssssscssssssssssc" />
  </g>
</svg>
