<?xml version="1.0" encoding="UTF-8" standalone="no"?>
<!-- Created with Inkscape (http://www.inkscape.org/) -->

<svg
   xmlns:dc="http://purl.org/dc/elements/1.1/"
   xmlns:cc="http://creativecommons.org/ns#"
   xmlns:rdf="http://www.w3.org/1999/02/22-rdf-syntax-ns#"
   xmlns:svg="http://www.w3.org/2000/svg"
   xmlns="http://www.w3.org/2000/svg"
   xmlns:sodipodi="http://sodipodi.sourceforge.net/DTD/sodipodi-0.dtd"
   xmlns:inkscape="http://www.inkscape.org/namespaces/inkscape"
   version="1.1"
   width="42"
   height="68"
   id="svg3173"
   inkscape:version="0.48.2 r9819"
   sodipodi:docname="pointer_spiral4.svg">
  <sodipodi:namedview
     pagecolor="#ffffff"
     bordercolor="#666666"
     borderopacity="1"
     objecttolerance="10"
     gridtolerance="10"
     guidetolerance="10"
     inkscape:pageopacity="0"
     inkscape:pageshadow="2"
     inkscape:window-width="640"
     inkscape:window-height="480"
     id="namedview3121"
     showgrid="false"
     inkscape:zoom="6.9411765"
     inkscape:cx="21"
     inkscape:cy="34"
     inkscape:window-x="239"
     inkscape:window-y="69"
     inkscape:window-maximized="0"
     inkscape:current-layer="svg3173" />
  <defs
     id="defs3175" />
  <metadata
     id="metadata3178">
    <rdf:RDF>
      <cc:Work
         rdf:about="">
        <dc:format>image/svg+xml</dc:format>
        <dc:type
           rdf:resource="http://purl.org/dc/dcmitype/StillImage" />
        <dc:title></dc:title>
      </cc:Work>
    </rdf:RDF>
  </metadata>
  <path
     inkscape:connector-curvature="0"
     style="fill:#ff0000"
     id="path145"
     d="M 5.5285752,34.508547 C 13.778923,45.848174 16.286296,59.29243 20.143266,66.74707 c 0.896045,1.120357 1.492123,1.19176 2.127964,0.09172 C 25.75681,59.076414 27.337526,43.890084 35.608501,34.392033 26.483169,39.382547 3.4894727,24.309577 5.5285752,34.508547 z" />
  <path
     inkscape:connector-curvature="0"
     style="fill:#ff0000;fill-opacity:1"
     id="path2993"
     d="M 8.5864599,7.7980952 C 11.618812,5.9738143 14.051218,5.263712 18.956327,4.6903876 c 5.422472,-1.009092 12.573477,0.5409954 16.750675,3.6779301 4.177197,3.1369343 6.532123,9.5548533 5.550105,15.5502243 -0.837169,5.111052 -1.964095,7.398446 -5.182108,10.60177 -3.258118,3.243244 -9.448158,4.666478 -14.358896,4.921289 C 16.811962,39.69607 10.169271,39.86143 6.6964448,36.849213 3.2236195,33.836997 -1.7863364,23.636562 1.6854613,15.514467 2.872563,12.290989 5.9636572,9.8880342 8.5864599,7.7980952 z" />
  <g
     style="fill:#000000"
     id="g3800"
     transform="matrix(0.88601423,0,0,0.88601423,-283.40503,-37.678283)">
    <g
       style="fill:#000000"
       id="g3802">
      <g
         style="fill:#000000"
         id="g3804">
        <path
           inkscape:connector-curvature="0"
           style="fill:#000000"
           id="path3806"
           d="m 363.562,62.833 c -1.579,-8.057 -9.201,-11.158 -15.25,-11.365 -4.31,-0.148 -8.512,1.045 -11.244,3.196 -0.388,0.304 -0.861,1.825 -0.469,3.021 0.353,1.078 1.331,1.476 2.842,1.177 0.861,-0.168 1.694,-0.514 2.58,-0.879 1.07,-0.443 2.177,-0.9 3.338,-1.017 1.241,-0.126 2.326,-0.171 3.313,-0.137 3.891,0.134 6.697,1.566 8.58,4.381 2.396,3.582 2.024,9.17 -0.865,13 -2.908,3.853 -8.64,6.312 -14.258,6.12 -2.088,-0.073 -4.022,-0.494 -5.754,-1.253 -6.188,-2.712 -8.472,-8.105 -6.982,-16.487 0.254,-1.426 -0.503,-3.876 -1.327,-4.301 -0.379,-0.195 -0.726,-0.299 -1.031,-0.309 -1.188,-0.042 -1.831,1.39 -2.452,2.773 -0.069,0.155 -0.138,0.308 -0.207,0.457 -0.243,0.527 -0.382,1.139 -0.517,1.73 -1.282,5.61 -0.147,11.062 3.183,15.392 3.468,4.505 8.9,7.208 14.903,7.415 1.765,0.06 3.571,-0.096 5.364,-0.465 9.253,-1.893 14.767,-6.462 16.396,-13.578 0.686,-3.936 0.136,-7.479 -0.132,-8.821 l -0.011,-0.05 z" />
      </g>
      <g
         style="fill:#000000"
         id="g3808">
        <path
           inkscape:connector-curvature="0"
           style="fill:#000000"
           id="path3810"
           d="m 354.587,66.577 c 0.777,-0.746 1.192,-1.646 1.199,-2.601 0.018,-2.597 -3.016,-4.701 -7.056,-4.898 l -0.169,-0.006 c -4.093,-0.14 -7.417,1.802 -7.564,4.421 -0.053,0.941 0.302,1.857 1.026,2.65 1.284,1.407 3.606,2.301 6.211,2.39 l -0.016,0.453 0,0 0.027,-0.452 c 2.606,0.087 4.975,-0.645 6.342,-1.957 z" />
      </g>
    </g>
  </g>
</svg>
