<?xml version="1.0" encoding="UTF-8" standalone="no"?>
<!-- Created with Inkscape (http://www.inkscape.org/) -->

<svg
   xmlns:dc="http://purl.org/dc/elements/1.1/"
   xmlns:cc="http://creativecommons.org/ns#"
   xmlns:rdf="http://www.w3.org/1999/02/22-rdf-syntax-ns#"
   xmlns:svg="http://www.w3.org/2000/svg"
   xmlns="http://www.w3.org/2000/svg"
   xmlns:sodipodi="http://sodipodi.sourceforge.net/DTD/sodipodi-0.dtd"
   xmlns:inkscape="http://www.inkscape.org/namespaces/inkscape"
   width="1052.3622"
   height="744.09448"
   id="svg2"
   version="1.1"
   inkscape:version="0.48.4 r9939"
   sodipodi:docname="logo.svg">
  <defs
     id="defs4" />
  <sodipodi:namedview
     id="base"
     pagecolor="#ffffff"
     bordercolor="#666666"
     borderopacity="1.0"
     inkscape:pageopacity="0.0"
     inkscape:pageshadow="2"
     inkscape:zoom="4"
     inkscape:cx="423.90628"
     inkscape:cy="566.14264"
     inkscape:document-units="px"
     inkscape:current-layer="layer1"
     showgrid="false"
     inkscape:window-width="1440"
     inkscape:window-height="845"
     inkscape:window-x="0"
     inkscape:window-y="27"
     inkscape:window-maximized="1" />
  <metadata
     id="metadata7">
    <rdf:RDF>
      <cc:Work
         rdf:about="">
        <dc:format>image/svg+xml</dc:format>
        <dc:type
           rdf:resource="http://purl.org/dc/dcmitype/StillImage" />
        <dc:title></dc:title>
      </cc:Work>
    </rdf:RDF>
  </metadata>
  <g
     inkscape:label="Calque 1"
     inkscape:groupmode="layer"
     id="layer1"
     transform="translate(0,-308.2677)">
    <text
       xml:space="preserve"
       style="font-size:12px;font-style:normal;font-variant:normal;font-weight:normal;font-stretch:normal;text-align:start;line-height:100%;letter-spacing:0px;word-spacing:0px;writing-mode:lr-tb;text-anchor:start;fill:#2d2d2d;fill-opacity:1;stroke:none;font-family:Bitstream Vera Sans;-inkscape-font-specification:Bitstream Vera Sans"
       x="242.85715"
       y="469.50507"
       id="text2985"
       sodipodi:linespacing="100%"><tspan
         sodipodi:role="line"
         id="tspan2987"
         x="242.85715"
         y="469.50507"
         style="font-size:64px;font-family:Pecita;-inkscape-font-specification:Pecita;fill:#2d2d2d;fill-opacity:1">uello</tspan></text>
    <path
       transform="matrix(-1,0,0,1,650.31255,450.98741)"
       d="m 80.050447,66.733696 a 16.16913,16.16913 0 1 1 -32.33826,0 16.16913,16.16913 0 1 1 32.33826,0 z"
       sodipodi:ry="16.16913"
       sodipodi:rx="16.16913"
       sodipodi:cy="66.733696"
       sodipodi:cx="63.881317"
       id="path3113"
       style="fill:#1a1a1a;fill-opacity:1;fill-rule:nonzero;stroke:none"
       sodipodi:type="arc" />
    <path
       sodipodi:nodetypes="zcczsaczz"
       inkscape:connector-curvature="0"
       id="path3115"
       d="m 537.20004,487.27064 c 0.64075,6.33345 6.77001,7.14089 9.84961,7.51283 11.09922,0.69654 21.91587,-8.29786 32.99776,-9.99504 15.09904,-2.39625 26.62334,-1.63004 36.33096,-2.00971 9.70763,-0.37968 19.50245,3.10542 20.72677,-0.0726 0.94061,-2.44161 -6.60918,-7.12021 -10.93264,-9.03041 -12.77114,-5.64255 -27.89802,-6.86891 -41.4667,-5.914 -13.67893,1.07972 -30.63819,5.3896 -38.20662,9.7119 -7.56843,4.3223 -9.93989,3.4636 -9.29914,9.79706 z"
       style="color:#000000;fill:#1a1a1a;fill-rule:evenodd;stroke:none;stroke-width:1px;marker:none;visibility:visible;display:inline;overflow:visible;enable-background:accumulate" />
    <path
       transform="matrix(-1.2018245,0,0,0.98438639,670.00858,452.52107)"
       d="m 69.447737,59.444332 a 4.1085496,3.3133464 0 1 1 -8.217099,0 4.1085496,3.3133464 0 1 1 8.217099,0 z"
       sodipodi:ry="3.3133464"
       sodipodi:rx="4.1085496"
       sodipodi:cy="59.444332"
       sodipodi:cx="65.339188"
       id="path3117"
       style="fill:#f9f9f9;fill-opacity:1;fill-rule:nonzero;stroke:none"
       sodipodi:type="arc" />
    <path
       sodipodi:nodetypes="cccccccccc"
       inkscape:connector-curvature="0"
       id="path3119"
       d="m 630.7975,518.36548 c 2.13371,-2.51953 0.33687,-6.08654 -0.94807,-8.61782 -5.72695,-9.71195 -15.84917,-14.20159 -26.23855,-17.96159 -14.83035,-5.18098 -32.16523,-4.54599 -45.88751,3.69316 -6.90094,4.29562 -18.17588,8.45251 -19.29977,16.76293 -0.84965,3.04237 5.27985,8.64267 8.47226,6.96849 6.03489,-2.48647 13.03369,-8.717 20.77388,-12.80914 13.90959,-3.15219 27.69442,0.21445 41.15211,4.31468 6.34895,1.76606 12.1307,7.17379 18.62651,8.37001 1.13988,0.11041 2.4402,0.0758 3.34914,-0.72072 z"
       style="color:#000000;fill:#1a1a1a;fill-rule:evenodd;stroke:none;stroke-width:1px;marker:none;visibility:visible;display:inline;overflow:visible;enable-background:accumulate" />
    <path
       sodipodi:nodetypes="cccczcc"
       inkscape:connector-curvature="0"
       id="path3121"
       d="m 614.64536,520.13347 c -6.39681,3.61539 -10.43538,11.01149 -20.86431,14.36426 -10.34937,2.86024 -21.7196,0.75545 -30.77786,2.15227 -1.85073,0.75994 -1.64595,1.46569 -0.36968,2.74841 9.00272,3.26489 21.18022,3.639 29.1891,3.56347 8.00888,-0.0755 37.08579,-11.84182 38.82707,-23.78161 -2.95535,-6.38099 -10.80545,-1.56825 -16.00432,0.9532 z"
       style="color:#000000;fill:#1a1a1a;fill-rule:evenodd;stroke:none;stroke-width:1px;marker:none;visibility:visible;display:inline;overflow:visible;enable-background:accumulate" />
    <path
       transform="matrix(-1.2018245,0,0,0.98438639,457.42799,395.85599)"
       d="m 69.447737,59.444332 a 4.1085496,3.3133464 0 1 1 -8.217099,0 4.1085496,3.3133464 0 1 1 8.217099,0 z"
       sodipodi:ry="3.3133464"
       sodipodi:rx="4.1085496"
       sodipodi:cy="59.444332"
       sodipodi:cx="65.339188"
       id="path3117-4-3"
       style="fill:#2d2d2d;fill-opacity:1;fill-rule:nonzero;stroke:none"
       sodipodi:type="arc" />
    <g
       id="g3969"
       transform="matrix(0.625,0,0,0.625,171.38235,167.55135)"
       inkscape:export-filename="/home/ben/Serveur/www/html/wikipedale/web/img/favicon.png"
       inkscape:export-xdpi="150"
       inkscape:export-ydpi="150">
      <text
         sodipodi:linespacing="100%"
         id="text2985-4"
         y="448.08359"
         x="485.20959"
         style="font-size:12px;font-style:normal;font-variant:normal;font-weight:normal;font-stretch:normal;text-align:end;line-height:100%;letter-spacing:0px;word-spacing:0px;writing-mode:lr-tb;text-anchor:end;fill:#2d2d2d;fill-opacity:1;stroke:none;font-family:Bitstream Vera Sans;-inkscape-font-specification:Bitstream Vera Sans"
         xml:space="preserve"><tspan
           style="font-size:64px;text-align:end;text-anchor:end;fill:#2d2d2d;fill-opacity:1;font-family:Pecita;-inkscape-font-specification:Pecita"
           y="448.08359"
           x="485.20959"
           id="tspan2987-7"
           sodipodi:role="line">o</tspan></text>
      <path
         sodipodi:type="arc"
         style="fill:#2d2d2d;fill-opacity:1;fill-rule:nonzero;stroke:none"
         id="path3117-4-3-6"
         sodipodi:cx="65.339188"
         sodipodi:cy="59.444332"
         sodipodi:rx="4.1085496"
         sodipodi:ry="3.3133464"
         d="m 69.447737,59.444332 c 0,1.829911 -1.83946,3.313347 -4.108549,3.313347 -2.26909,0 -4.10855,-1.483436 -4.10855,-3.313347 0,-1.829911 1.83946,-3.313346 4.10855,-3.313346 2.269089,0 4.108549,1.483435 4.108549,3.313346 z"
         transform="matrix(-1.2018245,0,0,0.98438639,551.40542,374.43451)" />
    </g>
    <rect
       style="fill:#2d2d2d;fill-opacity:1;fill-rule:nonzero;stroke:none"
       id="rect3864"
       width="176.7767"
       height="75.761444"
       x="328.53958"
       y="483.99292" />
    <text
       xml:space="preserve"
       style="font-size:4.36046505px;font-style:normal;font-variant:normal;font-weight:normal;font-stretch:normal;text-align:end;line-height:100%;letter-spacing:0px;word-spacing:0px;writing-mode:lr-tb;text-anchor:end;fill:#ffffff;fill-opacity:1;stroke:none;font-family:Bitstream Vera Sans;-inkscape-font-specification:Bitstream Vera Sans"
       x="403.69885"
       y="518.9765"
       id="text2985-7"
       sodipodi:linespacing="100%"
       inkscape:export-filename="/home/ben/Serveur/www/html/wikipedale/web/img/logo/logo_uello_blanc.png"
       inkscape:export-xdpi="150"
       inkscape:export-ydpi="150"><tspan
         sodipodi:role="line"
         id="tspan2987-3"
         x="403.69885"
         y="518.9765"
         style="font-size:23.2558136px;text-align:end;text-anchor:end;fill:#ffffff;fill-opacity:1;font-family:Pecita;-inkscape-font-specification:Pecita"> uello</tspan></text>
    <path
       transform="matrix(-0.43670948,0,0,0.35769854,427.43347,492.615)"
       d="m 69.447737,59.444332 a 4.1085496,3.3133464 0 1 1 -8.217099,0 4.1085496,3.3133464 0 1 1 8.217099,0 z"
       sodipodi:ry="3.3133464"
       sodipodi:rx="4.1085496"
       sodipodi:cy="59.444332"
       sodipodi:cx="65.339188"
       id="path3117-4-3-3"
       style="fill:#ffffff;fill-opacity:1;fill-rule:nonzero;stroke:none"
       sodipodi:type="arc"
       inkscape:export-filename="/home/ben/Serveur/www/html/wikipedale/web/img/logo/logo_uello_blanc.png"
       inkscape:export-xdpi="150"
       inkscape:export-ydpi="150" />
    <rect
       style="fill:#2d2d2d;fill-opacity:1;stroke:none"
       id="rect3948"
       width="0.17804877"
       height="0.1"
       x="338.51901"
       y="518.87646"
       inkscape:export-filename="/home/ben/Serveur/www/html/wikipedale/web/img/logo/logo_uello_blanc.png"
       inkscape:export-xdpi="150"
       inkscape:export-ydpi="150" />
  </g>
</svg>
